<svg width="664" height="665" viewBox="0 0 664 665" fill="none" xmlns="http://www.w3.org/2000/svg">
<g clip-path="url(#clip0_1_2)">
<path opacity="0.2" d="M663.459 504.085V333.877H663.999V331.998H663.459V161.791C663.449 120.049 647.205 79.9474 618.163 49.9658V46.8775H663.459V44.9858H619.475L661.709 2.52078L660.422 1.23396L618.201 43.699V2.1476H616.323V44.9858H613.131C583.581 16.7383 544.283 0.962883 503.404 0.937988H160.042C119.18 0.976116 79.9032 16.7505 50.3661 44.9858H47.162V2.1476H45.2961V43.6604L3.0755 1.19535L1.78868 2.48217L44.0092 44.9472H2.67659V46.826H45.2961V49.9658C16.25 79.9451 0.00579511 120.048 0 161.791V504.085C0.00579511 545.827 16.25 585.93 45.2961 615.909V619.049H2.67659V620.928H43.9706L1.75008 663.393L3.0369 664.68L45.2575 622.215V663.728H47.1234V620.889H50.3275C79.8742 649.134 119.167 664.909 160.042 664.937H503.404C544.27 664.902 583.552 649.128 613.093 620.889H616.284V663.728H618.163V622.215L660.383 664.68L661.67 663.393L619.437 620.928H663.999V619.049H618.163V615.909C647.198 585.923 663.441 545.825 663.459 504.085ZM661.58 504.085C661.577 544.662 646.041 583.698 618.163 613.181V451.904H660.911V450.038H618.163V333.877H661.58V504.085ZM449.525 450.038L448.238 448.751C450.374 446.581 452.446 444.35 454.453 442.06V450.038H449.525ZM454.453 451.917V454.993L451.391 451.917H454.453ZM210.073 450.038V443.282C211.746 445.148 213.471 446.963 215.221 448.751L213.934 450.038H210.073ZM212.068 451.917L210.073 453.899V451.904L212.068 451.917ZM213.934 215.837L215.221 217.124C213.471 218.912 211.746 220.74 210.073 222.593V215.837H213.934ZM210.073 213.958V211.977L212.068 213.971L210.073 213.958ZM454.453 215.837V223.815C452.446 221.525 450.374 219.294 448.238 217.124L449.525 215.837H454.453ZM451.391 213.958L454.453 210.883V213.958H451.391ZM454.453 331.985H450.052C449.857 301.112 437.666 271.524 416.055 249.474L446.938 218.462C449.512 221.096 452.026 223.828 454.479 226.659L454.453 331.985ZM456.319 228.885C480.321 257.894 493.511 294.334 493.637 331.985H456.319V228.885ZM414.729 250.761C436.001 272.447 448 301.558 448.187 331.934H333.981L414.729 250.761ZM332.669 330.544V215.837C362.941 216.048 391.925 228.115 413.404 249.449L332.669 330.544ZM330.79 330.544L250.042 249.359C271.545 228.064 300.528 216.032 330.79 215.837V330.544ZM329.503 331.831H215.272C215.466 301.456 227.464 272.348 248.729 250.658L329.503 331.831ZM329.503 333.71L248.755 414.882C227.49 393.193 215.492 364.084 215.298 333.71H329.503ZM330.79 334.997V450.038C300.512 449.826 271.523 437.754 250.042 416.414L330.79 334.997ZM332.669 334.997L413.404 416.169C391.969 437.601 362.979 449.763 332.669 450.038V334.997ZM333.956 333.71H448.148C447.961 364.086 435.962 393.197 414.691 414.882L333.956 333.71ZM445.587 217.124L414.704 248.149C397.752 231.332 376.09 220.063 352.589 215.837H444.275L445.587 217.124ZM332.669 213.958V170.116C373.451 170.316 412.636 185.99 442.306 213.971L332.669 213.958ZM330.79 213.958H221.153C250.817 185.969 290.006 170.294 330.79 170.103V213.958ZM310.857 215.837C287.349 220.064 265.678 231.332 248.717 248.149L217.833 217.124L219.12 215.837H310.857ZM216.546 218.411L247.43 249.423C225.809 271.466 213.615 301.058 213.432 331.934H210.099V225.437C212.171 223.056 214.32 220.727 216.546 218.475V218.411ZM208.208 331.934H169.77C169.914 293.706 183.523 256.751 208.208 227.56V331.934ZM208.208 333.813V438.187C183.523 408.996 169.914 372.041 169.77 333.813H208.208ZM210.073 333.813H213.406C213.587 364.685 225.781 394.274 247.404 416.311L216.52 447.336C214.294 445.084 212.145 442.755 210.086 440.374L210.073 333.813ZM217.872 448.751L248.755 417.726C265.707 434.537 287.362 445.804 310.857 450.038H219.184L217.872 448.751ZM330.79 451.917V495.772C290.006 495.581 250.817 479.906 221.153 451.917H330.79ZM332.669 451.917H442.306C412.636 479.898 373.451 495.572 332.669 495.772V451.917ZM352.589 450.038C376.099 445.817 397.771 434.548 414.729 417.726L445.613 448.751L444.326 450.038H352.589ZM446.913 447.465L416.029 416.439C437.643 394.397 449.835 364.812 450.027 333.941H454.428V439.268C452.026 442.047 449.521 444.779 446.913 447.465ZM456.319 333.941H493.637C493.511 371.592 480.321 408.032 456.319 437.041V333.941ZM495.554 332.063C495.411 293.201 481.511 255.645 456.319 226.054V215.837H555.276C573.903 251.725 583.668 291.551 583.753 331.985L495.554 332.063ZM456.319 214.035V209.068L510.597 154.52C527.98 172.126 542.698 192.176 554.285 214.035H456.319ZM456.319 206.417V112.66C475.677 123.752 493.482 137.355 509.272 153.117L456.319 206.417ZM454.453 208.296L448.753 214.035H445.034C414.881 184.857 374.627 168.446 332.669 168.225V79.5884C375.332 79.6821 417.26 90.7046 454.453 111.605V208.296ZM330.79 168.225C288.842 168.423 248.589 184.806 218.425 213.958H214.706L210.073 209.3V110.987C247.008 90.475 288.542 79.6676 330.79 79.5756V168.225ZM208.208 207.434L154.161 153.117C170.252 137.067 188.431 123.255 208.208 112.055V207.434ZM208.208 210.098V213.958H109.122C120.705 192.096 135.424 172.045 152.81 154.443L208.208 210.098ZM208.208 215.85V224.729C182.35 254.5 168.043 292.566 167.891 331.998H79.7056C79.789 291.56 89.5537 251.729 108.183 215.837L208.208 215.85ZM167.891 333.877C168.043 373.309 182.35 411.376 208.208 441.146V450.038H108.183C89.5557 414.15 79.7911 374.324 79.7056 333.89L167.891 333.877ZM208.208 451.904V455.765L152.874 511.394C135.488 493.791 120.77 473.741 109.187 451.878L208.208 451.904ZM208.208 458.441V553.82C188.431 542.62 170.252 528.808 154.161 512.758L208.208 458.441ZM210.073 456.562L214.706 451.904H218.425C248.587 481.061 288.84 497.449 330.79 497.651V586.313C288.542 586.21 247.009 575.398 210.073 554.888V456.562ZM332.669 497.651C374.617 497.45 414.869 481.067 445.034 451.917H448.753L454.453 457.656V554.271C417.259 575.169 375.332 586.195 332.669 586.3V497.651ZM456.319 459.535L509.272 512.771C493.476 528.526 475.672 542.129 456.319 553.228V459.535ZM456.319 456.884V451.917H554.285C542.698 473.777 527.98 493.827 510.597 511.432L456.319 456.884ZM456.319 450.038V439.898C481.511 410.307 495.411 372.752 495.554 333.89H583.753C583.668 374.324 573.903 414.15 555.276 450.038H456.319ZM585.619 333.89H616.284V450.038H557.386C575.862 414.1 585.539 374.287 585.619 333.877V333.89ZM585.619 332.011C585.541 291.597 575.864 251.78 557.386 215.837H616.284V331.985L585.619 332.011ZM556.395 213.984C544.651 191.619 529.664 171.113 511.923 153.13L615.1 49.4511L615.19 49.5283C615.576 49.9272 615.962 50.3519 616.348 50.8151V213.971L556.395 213.984ZM613.685 48.1514L510.597 151.792C494.435 135.66 476.179 121.771 456.319 110.498V46.8646H612.346L613.685 48.1514ZM454.453 109.456C417.202 88.7297 375.298 77.8021 332.669 77.6968V46.8131H454.453V109.456ZM332.669 44.9858V2.81674H454.453V44.9858H332.669ZM330.79 44.9858H210.073V2.81674H330.79V44.9858ZM330.79 46.8646V77.7483C288.576 77.8471 247.064 88.5603 210.073 108.902V46.8646H330.79ZM208.208 109.919C187.938 121.29 169.32 135.383 152.874 151.805L49.7871 48.1643L51.0739 46.8775H208.208V109.919ZM48.333 49.5283L48.4102 49.4511L151.536 153.117C133.787 171.096 118.796 191.603 107.051 213.971H47.162V50.7637C47.6124 50.3519 47.9341 49.9272 48.333 49.5283ZM106.073 215.837C87.5987 251.772 77.9223 291.58 77.8398 331.985H47.162V215.837H106.073ZM77.8398 333.864C77.9183 374.278 87.5948 414.096 106.073 450.038H47.162V333.877L77.8398 333.864ZM107.051 451.891C118.796 474.259 133.787 494.766 151.536 512.745L48.4102 616.424L48.333 616.347C47.9341 615.948 47.5609 615.523 47.162 615.06V451.904L107.051 451.891ZM49.7742 617.724L152.861 514.083C169.311 530.506 187.927 544.602 208.195 555.982V619.036H51.1125L49.7742 617.724ZM210.073 557.025C247.064 577.366 288.576 588.08 330.79 588.178V619.062H210.073V557.025ZM330.79 620.889V663.058H210.073V620.889H330.79ZM332.669 620.889H454.453V663.058H332.669V620.889ZM332.669 619.011V588.127C375.298 588.022 417.202 577.094 454.453 556.368V618.959L332.669 619.011ZM456.319 555.377C476.179 544.104 494.435 530.216 510.597 514.083L613.685 617.724L612.398 619.011H456.319V555.377ZM615.1 616.347L615.01 616.424L511.897 512.758C529.639 494.775 544.625 474.269 556.37 451.904H616.258V615.112L615.1 616.347ZM661.58 161.791V331.998H618.163V215.837H660.911V213.958H618.163V52.7325C646.032 82.2061 661.567 121.227 661.58 161.791ZM610.39 44.9472H456.319V2.81674H503.404C543.114 2.84607 581.34 17.9129 610.39 44.9858V44.9472ZM160.003 2.77814H208.208V44.9472H53.0685C82.1211 17.8902 120.341 2.83755 160.042 2.81674L160.003 2.77814ZM1.86589 504.085V161.791C1.87391 121.212 17.4138 82.1759 45.2961 52.6939V213.932H2.57364V215.837H45.2961V331.985H2.41922V333.864H45.2961V450.038H2.57364V451.917H45.2961V613.156C17.4199 583.68 1.88049 544.654 1.86589 504.085ZM53.0685 620.928H208.208V663.097H160.042C120.331 663.055 82.1092 647.975 53.0685 620.889V620.928ZM503.456 663.097H456.319V620.889H610.39C581.338 647.96 543.114 663.027 503.404 663.058L503.456 663.097Z" fill="url(#paint0_radial_1_2)"/>
<mask id="mask0_1_2" style="mask-type:alpha" maskUnits="userSpaceOnUse" x="-13" y="-5" width="592" height="665">
<path d="M578.785 -5H-13V659.938H578.785V-5Z" fill="url(#paint1_linear_1_2)"/>
</mask>
<g mask="url(#mask0_1_2)">
<path d="M82.6612 579.71C82.6612 574.582 82.6612 572.019 83.6748 570.067C84.529 568.423 85.8698 567.082 87.5142 566.228C89.4656 565.214 92.0293 565.214 97.1566 565.214H146.945C152.073 565.214 154.636 565.214 156.588 566.228C158.232 567.082 159.573 568.423 160.427 570.067C161.441 572.019 161.441 574.582 161.441 579.71V629.499C161.441 634.626 161.441 637.19 160.427 639.141C159.573 640.785 158.232 642.126 156.588 642.98C154.636 643.994 152.073 643.994 146.945 643.994H97.1566C92.0293 643.994 89.4656 643.994 87.5142 642.98C85.8698 642.126 84.529 640.785 83.6748 639.141C82.6612 637.19 82.6612 634.626 82.6612 629.499V579.71Z" fill="white"/>
<path d="M146.945 564.745H97.1566H97.1343C94.5895 564.745 92.6508 564.745 91.1056 564.874C89.5503 565.003 88.3518 565.264 87.2981 565.812C85.568 566.711 84.1574 568.121 83.2587 569.851C82.7113 570.905 82.4497 572.104 82.3205 573.659C82.1922 575.204 82.1922 577.143 82.1922 579.687V579.71V629.499V629.521C82.1922 632.066 82.1922 634.004 82.3205 635.55C82.4497 637.105 82.7113 638.303 83.2587 639.357C84.1574 641.087 85.568 642.498 87.2981 643.396C88.3518 643.944 89.5503 644.205 91.1056 644.335C92.6507 644.463 94.5893 644.463 97.134 644.463H97.1566H146.945H146.968C149.513 644.463 151.451 644.463 152.996 644.335C154.552 644.205 155.75 643.944 156.804 643.396C158.534 642.498 159.945 641.087 160.843 639.357C161.391 638.303 161.652 637.105 161.782 635.55C161.91 634.004 161.91 632.066 161.91 629.521V629.499V579.71V579.687C161.91 577.143 161.91 575.204 161.782 573.659C161.652 572.104 161.391 570.905 160.843 569.851C159.945 568.121 158.534 566.711 156.804 565.812C155.75 565.264 154.552 565.003 152.996 564.874C151.451 564.745 149.513 564.745 146.968 564.745H146.945Z" fill="white" stroke="white" stroke-opacity="0.2" stroke-width="0.937853"/>
<mask id="mask1_1_2" style="mask-type:luminance" maskUnits="userSpaceOnUse" x="94" y="577" width="56" height="55">
<path d="M149.248 577.407H94.8526V631.803H149.248V577.407Z" fill="white"/>
</mask>
<g mask="url(#mask1_1_2)">
<path d="M98.252 577.407H145.848L141.519 626.279L121.998 631.802L102.586 626.277L98.252 577.407ZM136.986 587.409L107.114 587.402L107.597 593.345L130.545 593.349L129.967 599.505H114.917L115.461 605.337H129.473L128.643 613.321L122.048 615.144L115.348 613.308L114.922 608.525H109.007L109.664 617.263L122.05 621.123L134.228 617.655L136.986 587.411V587.409Z" fill="black"/>
</g>
<path d="M358.982 61.2432H309.276C301.506 61.2432 295.208 67.5415 295.208 75.311V125.017C295.208 132.787 301.506 139.085 309.276 139.085H358.982C366.752 139.085 373.05 132.787 373.05 125.017V75.311C373.05 67.5415 366.752 61.2432 358.982 61.2432Z" fill="white" fill-opacity="0.71"/>
<path d="M358.982 60.7742H309.276C301.248 60.7742 294.739 67.2825 294.739 75.311V125.017C294.739 133.046 301.248 139.554 309.276 139.554H358.982C367.011 139.554 373.519 133.046 373.519 125.017V75.311C373.519 67.2826 367.011 60.7742 358.982 60.7742Z" stroke="white" stroke-opacity="0.2" stroke-width="0.937853"/>
<path d="M347.497 122.057C349.065 124.617 351.105 126.499 354.713 126.499C357.744 126.499 359.68 124.984 359.68 122.891C359.68 120.383 357.691 119.494 354.355 118.035L352.526 117.251C347.248 115.002 343.741 112.185 343.741 106.229C343.741 100.743 347.921 96.567 354.454 96.567C359.104 96.567 362.448 98.186 364.857 102.424L359.161 106.081C357.907 103.832 356.554 102.946 354.454 102.946C352.311 102.946 350.953 104.305 350.953 106.081C350.953 108.275 352.312 109.164 355.451 110.523L357.279 111.306C363.494 113.971 367.003 116.688 367.003 122.797C367.003 129.383 361.83 132.991 354.882 132.991C348.089 132.991 343.7 129.753 341.553 125.51L347.497 122.057ZM321.658 122.691C322.807 124.73 323.852 126.453 326.365 126.453C328.768 126.453 330.284 125.513 330.284 121.857V96.985H337.599V121.956C337.599 129.53 333.158 132.977 326.676 132.977C320.82 132.977 317.428 129.946 315.703 126.296L321.658 122.691Z" fill="#727272"/>
<path d="M194.609 20.6665H145.84C137.553 20.6665 130.835 27.3847 130.835 35.6721V84.4405C130.835 92.7279 137.553 99.4461 145.84 99.4461H194.609C202.896 99.4461 209.615 92.7279 209.615 84.4405V35.6721C209.615 27.3847 202.896 20.6665 194.609 20.6665Z" fill="white" fill-opacity="0.78"/>
<path d="M194.609 20.1976H145.84C137.294 20.1976 130.366 27.1258 130.366 35.6722V84.4405C130.366 92.9869 137.294 99.9151 145.84 99.9151H194.609C203.155 99.9151 210.083 92.9869 210.083 84.4405V35.6722C210.083 27.1258 203.155 20.1976 194.609 20.1976Z" stroke="white" stroke-opacity="0.2" stroke-width="0.937853"/>
<path d="M170.048 70.8998C186.62 71.1697 200.134 66.5352 200.231 60.5484C200.329 54.5616 186.973 49.4895 170.401 49.2196C153.828 48.9497 140.315 53.5842 140.217 59.571C140.12 65.5579 153.475 70.6299 170.048 70.8998Z" stroke="#818181" stroke-width="2.73905"/>
<path d="M160.213 65.3146C168.278 79.0287 179.298 87.7918 184.827 84.8876C190.355 81.9834 188.299 68.5117 180.234 54.7977C172.169 41.0837 161.149 32.3206 155.62 35.2248C150.092 38.1289 152.148 51.6006 160.213 65.3146Z" stroke="#818181" stroke-width="2.73905"/>
<path d="M160.391 54.4744C151.884 67.9185 149.39 81.3161 154.821 84.3988C160.252 87.4814 171.552 79.0818 180.059 65.6377C188.566 52.1935 191.06 38.7959 185.629 35.7133C180.198 32.6306 168.898 41.0303 160.391 54.4744Z" stroke="#818181" stroke-width="2.73905"/>
<path d="M170.302 51.0821C172.164 51.1124 173.98 51.2067 175.736 51.3545C176.446 52.3829 177.146 53.4513 177.826 54.5586L178.542 55.75C179.441 57.2791 180.261 58.8029 181.002 60.3047C180.42 61.3939 179.796 62.4943 179.127 63.5977L178.395 64.7784C177.442 66.2854 176.452 67.7233 175.443 69.086C174.144 69.1528 172.813 69.1907 171.456 69.1924L170.007 69.1817C168.147 69.1514 166.332 69.0569 164.577 68.9092C163.865 67.8793 163.164 66.8092 162.483 65.7002L161.767 64.5078C160.868 62.9786 160.048 61.4542 159.306 59.9522C159.889 58.8632 160.513 57.7633 161.182 56.6602L161.915 55.4785C162.867 53.9738 163.853 52.5372 164.86 51.1768C166.161 51.1098 167.494 51.0731 168.852 51.0713L170.302 51.0821Z" fill="white" fill-opacity="0.2" stroke="#818181"/>
<path d="M170.327 55.2661C173.076 55.311 175.244 57.3834 175.339 59.895L175.341 60.1401C175.297 62.7604 173.009 64.8943 170.17 64.8481L169.906 64.8374C167.283 64.6692 165.25 62.6492 165.158 60.2182L165.156 59.9741C165.198 57.4356 167.347 55.3535 170.062 55.268L170.327 55.2661Z" fill="#A7A7A7" stroke="#FFF3F3"/>
<path d="M480.272 328.679L429.631 328.099C421.862 328.01 415.492 334.236 415.403 342.005L414.823 392.646C414.734 400.415 420.96 406.785 428.729 406.874L479.369 407.454C487.138 407.543 493.508 401.317 493.597 393.548L494.177 342.907C494.266 335.138 488.04 328.768 480.272 328.679Z" fill="white"/>
<path d="M480.276 328.211L429.636 327.63C421.608 327.539 415.025 333.972 414.933 342L414.353 392.641C414.261 400.668 420.695 407.251 428.723 407.343L479.363 407.923C487.391 408.015 493.974 401.581 494.066 393.554L494.646 342.913C494.738 334.885 488.304 328.302 480.276 328.211Z" fill="white" stroke="white" stroke-opacity="0.2" stroke-width="0.937853"/>
<path d="M441.46 362.843C441.451 363.581 441.524 364.181 441.659 364.622C441.814 365.063 442.008 365.544 442.281 366.066C442.379 366.227 442.417 366.387 442.416 366.527C442.414 366.727 442.291 366.925 442.03 367.122L440.762 367.946C440.581 368.063 440.401 368.121 440.241 368.119C440.042 368.117 439.843 368.015 439.646 367.833C439.37 367.53 439.134 367.208 438.938 366.887C438.742 366.545 438.547 366.163 438.333 365.702C436.755 367.52 434.788 368.416 432.432 368.389C430.756 368.37 429.424 367.876 428.456 366.906C427.489 365.937 427.005 364.654 427.023 363.057C427.043 361.36 427.657 359.99 428.887 358.965C430.116 357.941 431.739 357.441 433.795 357.464C434.474 357.472 435.172 357.54 435.909 357.648C436.647 357.757 437.404 357.925 438.2 358.114L438.217 356.657C438.234 355.14 437.927 354.078 437.315 353.452C436.683 352.826 435.609 352.514 434.072 352.497C433.373 352.489 432.654 352.56 431.913 352.731C431.172 352.903 430.451 353.114 429.749 353.385C429.428 353.521 429.188 353.599 429.048 353.637C428.908 353.675 428.807 353.694 428.728 353.693C428.448 353.69 428.311 353.489 428.316 353.069L428.327 352.091C428.33 351.772 428.373 351.533 428.474 351.394C428.576 351.256 428.757 351.118 429.038 350.982C429.741 350.63 430.583 350.34 431.564 350.112C432.545 349.864 433.584 349.756 434.682 349.768C437.057 349.796 438.788 350.355 439.893 351.445C440.979 352.536 441.519 354.179 441.494 356.375L441.42 362.842L441.46 362.843ZM433.321 365.784C433.979 365.792 434.659 365.68 435.381 365.448C436.102 365.217 436.746 364.785 437.292 364.193C437.616 363.817 437.86 363.4 437.985 362.923C438.11 362.445 438.197 361.867 438.205 361.188L438.214 360.35C437.637 360.204 437.02 360.077 436.382 359.99C435.744 359.902 435.125 359.855 434.507 359.848C433.169 359.833 432.188 360.081 431.523 360.613C430.858 361.144 430.53 361.899 430.519 362.897C430.508 363.835 430.74 364.537 431.233 365.022C431.707 365.526 432.402 365.774 433.321 365.784ZM449.325 368.124C448.966 368.119 448.727 368.057 448.569 367.915C448.411 367.794 448.274 367.513 448.159 367.132L443.644 351.648C443.529 351.247 443.472 350.987 443.474 350.847C443.477 350.528 443.639 350.35 443.959 350.354L445.915 350.376C446.294 350.381 446.553 350.443 446.691 350.585C446.849 350.706 446.966 350.987 447.081 351.368L450.284 364.621L453.549 351.442C453.653 351.044 453.776 350.786 453.937 350.668C454.098 350.55 454.379 350.473 454.738 350.477L456.335 350.496C456.714 350.5 456.973 350.563 457.131 350.704C457.289 350.826 457.426 351.107 457.501 351.487L460.502 364.898L464.109 351.563C464.233 351.165 464.376 350.907 464.517 350.789C464.678 350.671 464.938 350.594 465.298 350.598L467.154 350.62C467.473 350.623 467.651 350.785 467.647 351.124C467.646 351.224 467.625 351.324 467.604 351.443C467.582 351.563 467.541 351.722 467.458 351.941L462.471 367.316C462.346 367.714 462.204 367.972 462.043 368.09C461.882 368.207 461.621 368.284 461.282 368.28L459.565 368.261C459.186 368.256 458.927 368.194 458.769 368.052C458.611 367.911 458.474 367.649 458.399 367.249L455.452 354.339L452.231 367.159C452.127 367.557 452.004 367.815 451.843 367.953C451.681 368.091 451.401 368.147 451.042 368.143L449.325 368.124ZM474.97 368.956C473.932 368.944 472.895 368.813 471.9 368.562C470.904 368.311 470.129 368.042 469.613 367.737C469.296 367.554 469.079 367.352 469.001 367.171C468.923 366.99 468.885 366.79 468.887 366.611L468.899 365.593C468.904 365.174 469.066 364.976 469.365 364.979C469.485 364.981 469.605 365.002 469.724 365.043C469.843 365.084 470.022 365.166 470.221 365.248C470.896 365.556 471.632 365.804 472.408 365.972C473.205 366.141 473.983 366.23 474.781 366.239C476.039 366.253 477.019 366.045 477.703 365.614C478.387 365.182 478.753 364.548 478.763 363.729C478.769 363.17 478.595 362.709 478.24 362.326C477.885 361.942 477.21 361.595 476.236 361.265L473.351 360.333C471.899 359.857 470.829 359.166 470.181 358.261C469.532 357.375 469.204 356.393 469.216 355.355C469.226 354.516 469.414 353.78 469.78 353.145C470.147 352.51 470.632 351.957 471.236 351.525C471.84 351.073 472.523 350.741 473.324 350.511C474.125 350.28 474.965 350.19 475.843 350.2C476.282 350.205 476.741 350.23 477.18 350.295C477.638 350.36 478.056 350.445 478.475 350.53C478.873 350.634 479.251 350.738 479.609 350.862C479.967 350.986 480.245 351.109 480.443 351.231C480.721 351.394 480.919 351.556 481.036 351.737C481.154 351.898 481.212 352.118 481.208 352.398L481.198 353.336C481.193 353.755 481.031 353.973 480.731 353.969C480.571 353.967 480.313 353.885 479.975 353.721C478.844 353.189 477.569 352.915 476.152 352.899C475.014 352.886 474.114 353.055 473.49 353.427C472.867 353.799 472.541 354.375 472.532 355.193C472.525 355.752 472.72 356.233 473.114 356.617C473.509 357.001 474.244 357.389 475.298 357.74L478.122 358.671C479.554 359.147 480.585 359.797 481.194 360.623C481.803 361.448 482.092 362.39 482.08 363.428C482.07 364.286 481.882 365.063 481.535 365.737C481.168 366.412 480.682 367.005 480.057 367.477C479.433 367.969 478.69 368.32 477.829 368.57C476.927 368.839 475.988 368.968 474.97 368.956Z" fill="black"/>
<path d="M478.632 378.701C472.009 383.476 462.438 385.942 454.234 385.848C442.736 385.716 432.424 381.346 424.68 374.19C424.068 373.624 424.636 372.871 425.369 373.319C433.777 378.327 444.182 381.42 454.982 381.544C462.268 381.628 470.29 380.202 477.691 377.173C478.795 376.686 479.719 377.914 478.632 378.701ZM481.402 375.618C480.576 374.53 475.859 375.035 473.72 375.27C473.08 375.343 472.987 374.783 473.571 374.37C477.354 371.778 483.513 372.608 484.221 373.494C484.93 374.401 483.941 380.558 480.394 383.472C479.85 383.925 479.333 383.68 479.58 383.084C480.401 381.117 482.228 376.685 481.402 375.618Z" fill="black"/>
<path d="M274.921 161H224.277C216.507 161 210.209 167.298 210.209 175.068V225.712C210.209 233.481 216.507 239.78 224.277 239.78H274.921C282.69 239.78 288.989 233.481 288.989 225.712V175.068C288.989 167.298 282.69 161 274.921 161Z" fill="white" fill-opacity="0.58"/>
<path d="M274.921 160.531H224.277C216.248 160.531 209.74 167.039 209.74 175.068V225.712C209.74 233.74 216.248 240.249 224.277 240.249H274.921C282.949 240.249 289.457 233.74 289.457 225.712V175.068C289.457 167.039 282.949 160.531 274.921 160.531Z" fill="white" fill-opacity="0.58" stroke="white" stroke-opacity="0.2" stroke-width="0.937853"/>
<path d="M229.467 209.575L235.381 171.53C235.424 171.248 235.555 170.987 235.755 170.783C235.955 170.58 236.214 170.445 236.495 170.397C236.776 170.349 237.065 170.392 237.321 170.518C237.577 170.644 237.787 170.848 237.92 171.1L244.28 183.032L229.467 209.575ZM271.471 218.807L265.839 183.795C265.797 183.55 265.689 183.32 265.526 183.132C265.364 182.944 265.152 182.804 264.915 182.728C264.678 182.652 264.425 182.642 264.183 182.7C263.941 182.758 263.719 182.882 263.543 183.057L228.028 218.807L247.679 229.881C248.285 230.222 248.968 230.401 249.663 230.401C250.359 230.401 251.042 230.222 251.648 229.881L271.471 218.807ZM255.502 188.254L250.95 179.546C250.835 179.327 250.663 179.143 250.451 179.015C250.24 178.887 249.997 178.82 249.75 178.82C249.502 178.82 249.26 178.887 249.048 179.015C248.837 179.143 248.664 179.327 248.549 179.546L228.566 215.355L255.502 188.254Z" fill="#636363"/>
<path d="M425.129 211.795H374.485C366.715 211.795 360.417 218.093 360.417 225.863V276.507C360.417 284.276 366.715 290.575 374.485 290.575H425.129C432.898 290.575 439.197 284.276 439.197 276.507V225.863C439.197 218.093 432.898 211.795 425.129 211.795Z" fill="white" fill-opacity="0.58"/>
<path d="M425.129 211.326H374.485C366.456 211.326 359.948 217.834 359.948 225.863V276.507C359.948 284.535 366.456 291.043 374.485 291.043H425.129C433.157 291.043 439.665 284.535 439.665 276.507V225.863C439.665 217.834 433.157 211.326 425.129 211.326Z" fill="white" fill-opacity="0.58" stroke="white" stroke-opacity="0.2" stroke-width="0.937853"/>
<mask id="mask2_1_2" style="mask-type:luminance" maskUnits="userSpaceOnUse" x="369" y="221" width="61" height="61">
<path d="M429.874 221.231L369.852 221.116L369.737 281.138L429.759 281.254L429.874 221.231Z" fill="white"/>
</mask>
<g mask="url(#mask2_1_2)">
<path d="M369.756 271.345C369.861 272.671 370.326 274.005 371.543 275.795C372.99 277.921 375.478 279.092 377.3 277.224C378.528 275.964 391.838 252.803 398.247 244.027C398.423 243.776 398.657 243.571 398.929 243.43C399.201 243.289 399.503 243.216 399.809 243.216C400.115 243.217 400.417 243.291 400.689 243.433C400.96 243.576 401.193 243.781 401.368 244.033C407.744 252.833 420.964 276.045 422.187 277.31C424.002 279.185 426.495 278.024 427.949 275.903C429.379 273.818 429.777 272.356 429.78 270.79C429.782 269.725 409.198 231.241 407.123 228.035C405.129 224.955 404.52 224.284 401.136 224.167L398.555 224.162C395.171 224.266 394.56 224.933 392.55 228.007C390.509 231.137 370.588 268.03 369.758 270.56L369.756 271.345Z" fill="#5C5C5C"/>
</g>
<path d="M322.652 298.864H260.014C255.816 298.864 252.412 302.268 252.412 306.466V369.104C252.412 373.303 255.816 376.706 260.014 376.706H322.652C326.851 376.706 330.254 373.303 330.254 369.104V306.466C330.254 302.268 326.851 298.864 322.652 298.864Z" fill="white"/>
<path d="M322.652 298.395H260.014C255.557 298.395 251.943 302.009 251.943 306.466V369.104C251.943 373.562 255.557 377.175 260.014 377.175H322.652C327.11 377.175 330.723 373.562 330.723 369.104V306.466C330.723 302.009 327.11 298.395 322.652 298.395Z" fill="white" stroke="white" stroke-opacity="0.2" stroke-width="0.937853"/>
<path fill-rule="evenodd" clip-rule="evenodd" d="M300.314 360.852V368.454C301.545 369.093 303.05 369.564 304.723 369.883C306.395 370.202 308.219 370.354 310.044 370.354C311.868 370.354 313.541 370.187 315.213 369.838C316.885 369.488 318.254 368.91 319.47 368.165C320.701 367.359 321.751 366.341 322.359 364.972C322.967 363.604 323.438 362.084 323.438 360.107C323.438 358.724 323.225 357.523 322.815 356.458C322.404 355.394 321.811 354.482 320.99 353.722C320.215 352.916 319.318 352.201 318.254 351.593C317.189 350.985 315.973 350.347 314.605 349.769C313.601 349.358 312.78 348.963 311.868 348.568C311.078 348.173 310.394 347.777 309.892 347.382C309.329 346.971 308.904 346.546 308.6 346.105C308.295 345.649 308.143 345.147 308.143 344.585C308.143 344.068 308.279 343.596 308.554 343.171C308.829 342.745 309.208 342.395 309.694 342.091C310.181 341.787 310.789 341.559 311.519 341.392C312.233 341.225 313.024 341.149 313.951 341.149C314.59 341.149 315.259 341.196 315.928 341.291C316.627 341.387 317.342 341.535 318.056 341.732C318.771 341.93 319.47 342.173 320.185 342.477C320.854 342.781 321.477 343.131 322.009 343.526V336.381C320.854 335.94 319.576 335.605 318.208 335.393C316.84 335.18 315.319 335.073 313.495 335.073C311.671 335.073 309.998 335.271 308.326 335.651C306.653 336.031 305.285 336.639 304.069 337.475C302.837 338.296 301.94 339.3 301.18 340.668C300.466 341.945 300.116 343.405 300.116 345.229C300.116 347.51 300.77 349.486 302.092 351.006C303.4 352.679 305.437 353.895 308.022 355.111C309.071 355.537 309.998 355.963 310.91 356.373C311.823 356.784 312.583 357.21 313.191 357.65C313.845 358.091 314.362 358.578 314.711 359.095C315.091 359.612 315.289 360.22 315.289 360.919C315.289 361.406 315.17 361.862 314.939 362.287C314.708 362.713 314.346 363.078 313.86 363.382C313.373 363.686 312.78 363.929 312.036 364.112C311.321 364.279 310.515 364.37 309.451 364.37C307.779 364.37 306.106 364.081 304.586 363.504C302.913 362.926 301.393 362.059 300.025 360.919L300.314 360.852ZM287.543 342.152H297.273V335.919H270.059V342.152H279.789V369.974H287.543V342.152Z" fill="black"/>
<path d="M347.136 435.791H296.492C288.722 435.791 282.424 442.089 282.424 449.859V500.503C282.424 508.272 288.722 514.571 296.492 514.571H347.136C354.905 514.571 361.204 508.272 361.204 500.503V449.859C361.204 442.089 354.905 435.791 347.136 435.791Z" fill="white" fill-opacity="0.1"/>
<path d="M347.136 435.322H296.492C288.463 435.322 281.955 441.83 281.955 449.859V500.503C281.955 508.531 288.463 515.039 296.492 515.039H347.136C355.164 515.039 361.672 508.531 361.672 500.503V449.859C361.672 441.83 355.164 435.322 347.136 435.322Z" fill="#D9D9D9" stroke="white" stroke-opacity="0.2" stroke-width="0.937853"/>
<mask id="mask3_1_2" style="mask-type:luminance" maskUnits="userSpaceOnUse" x="294" y="447" width="56" height="56">
<path d="M349.164 447.982H294.615V502.531H349.164V447.982Z" fill="white"/>
</mask>
<g mask="url(#mask3_1_2)">
<path d="M321.89 449.157H322.041C336.761 449.24 348.661 461.201 348.661 475.93C348.661 487.736 341.016 497.765 330.325 501.278C329.748 501.385 329.46 501.253 329.314 501.121C329.151 500.973 329.064 500.734 329.064 500.479C329.064 500.037 329.072 499.084 329.081 497.78C329.089 496.478 329.098 494.829 329.098 493.004C329.098 490.935 328.535 489.368 327.776 488.336C330.54 487.947 333.365 487.148 335.575 485.296C338.066 483.208 339.699 479.854 339.699 474.508C339.699 471.511 338.672 469.037 336.98 467.074C337.335 466.017 337.977 463.306 336.604 459.783L336.517 459.56L336.29 459.488L336.154 459.915C336.29 459.488 336.289 459.487 336.289 459.487H336.288L336.286 459.486C336.284 459.486 336.283 459.486 336.281 459.485C336.277 459.484 336.272 459.483 336.267 459.481C336.258 459.478 336.246 459.475 336.232 459.471C336.203 459.464 336.165 459.455 336.118 459.447C336.023 459.43 335.892 459.414 335.722 459.406C335.383 459.391 334.893 459.414 334.245 459.551C332.98 459.82 331.115 460.523 328.579 462.219C326.696 461.719 324.723 461.434 322.739 461.359L321.854 461.339H321.847C319.568 461.354 317.284 461.642 315.12 462.219C312.569 460.523 310.697 459.82 309.428 459.551C308.778 459.414 308.288 459.391 307.948 459.406C307.778 459.414 307.646 459.43 307.551 459.447C307.504 459.455 307.467 459.464 307.438 459.471C307.424 459.475 307.412 459.478 307.402 459.481C307.397 459.483 307.393 459.484 307.389 459.485C307.388 459.486 307.386 459.486 307.384 459.486L307.382 459.487H307.381C307.38 459.487 307.384 459.499 307.532 459.964L307.38 459.488L307.153 459.56L307.066 459.782C305.697 463.292 306.325 466.004 306.714 467.081C305.01 469.043 303.987 471.514 303.987 474.508C303.987 479.843 305.618 483.198 308.105 485.293C310.313 487.152 313.134 487.963 315.896 488.36C315.365 489.083 314.939 490.058 314.734 491.275C313.968 491.589 312.807 491.934 311.583 491.825C310.337 491.714 308.986 491.134 307.888 489.461L307.672 489.111L307.671 489.109C307.667 489.102 307.662 489.093 307.655 489.082C307.642 489.059 307.622 489.026 307.597 488.986C307.548 488.906 307.475 488.794 307.38 488.66C307.188 488.393 306.903 488.035 306.526 487.671C305.775 486.945 304.626 486.164 303.1 486.06L303.088 486.059H303.074L303.069 486.386C303.073 486.089 303.073 486.062 303.073 486.059H303.034C303.011 486.059 302.979 486.06 302.94 486.061C302.863 486.064 302.756 486.07 302.635 486.083C302.414 486.107 302.07 486.162 301.798 486.316C301.656 486.396 301.486 486.529 301.391 486.743C301.289 486.974 301.309 487.216 301.399 487.432C301.484 487.635 301.633 487.827 301.82 488.01C302.011 488.198 302.265 488.401 302.589 488.622L302.622 488.644L302.658 488.662L302.662 488.664C302.67 488.668 302.684 488.675 302.704 488.686C302.744 488.709 302.807 488.747 302.888 488.802C303.052 488.914 303.291 489.098 303.569 489.377C304.123 489.931 304.84 490.866 305.435 492.365L305.436 492.366C305.441 492.38 305.447 492.398 305.455 492.422C305.471 492.468 305.495 492.533 305.528 492.612C305.593 492.771 305.695 492.991 305.84 493.247C306.132 493.759 306.606 494.423 307.336 495.03C308.739 496.198 311.021 497.102 314.6 496.469C314.61 498.444 314.623 499.909 314.623 500.498C314.623 500.76 314.533 501.005 314.367 501.157C314.219 501.293 313.933 501.424 313.381 501.327C302.769 497.776 295.115 487.754 295.115 475.932C295.115 461.15 307.099 449.157 321.89 449.157Z" fill="black" stroke="black"/>
</g>
<path d="M194.265 411.407H143.621C135.851 411.407 129.553 417.705 129.553 425.475V476.119C129.553 483.888 135.851 490.187 143.621 490.187H194.265C202.034 490.187 208.333 483.888 208.333 476.119V425.475C208.333 417.705 202.034 411.407 194.265 411.407Z" fill="white" fill-opacity="0.1"/>
<path d="M194.265 410.938H143.621C135.592 410.938 129.084 417.446 129.084 425.475V476.119C129.084 484.147 135.592 490.655 143.621 490.655H194.265C202.293 490.655 208.801 484.147 208.801 476.119V425.475C208.801 417.446 202.293 410.938 194.265 410.938Z" fill="#D4D4D4" fill-opacity="0.83" stroke="white" stroke-opacity="0.57" stroke-width="0.937853"/>
<path d="M193.975 433.911L170.768 475.409C170.289 476.266 169.058 476.271 168.571 475.418L144.904 433.915C144.374 432.986 145.169 431.86 146.222 432.049L169.454 436.201C169.602 436.228 169.754 436.227 169.902 436.2L192.648 432.054C193.697 431.863 194.495 432.98 193.975 433.911Z" fill="#020000"/>
<path d="M180.52 426.602L163.346 429.967C163.209 429.994 163.085 430.066 162.993 430.171C162.901 430.276 162.846 430.409 162.838 430.549L161.782 448.391C161.776 448.489 161.793 448.587 161.831 448.677C161.87 448.767 161.929 448.847 162.004 448.91C162.079 448.973 162.167 449.018 162.263 449.041C162.358 449.064 162.457 449.065 162.553 449.043L167.334 447.939C167.782 447.836 168.186 448.23 168.094 448.68L166.673 455.636C166.578 456.105 167.017 456.505 167.474 456.366L170.428 455.469C170.886 455.33 171.326 455.731 171.229 456.2L168.971 467.126C168.83 467.81 169.739 468.183 170.118 467.597L170.371 467.205L184.366 439.277C184.6 438.81 184.196 438.277 183.682 438.376L178.76 439.326C178.298 439.415 177.905 438.984 178.035 438.532L181.247 427.396C181.378 426.942 180.983 426.511 180.52 426.602Z" fill="url(#paint2_linear_1_2)"/>
<path d="M168.944 249.158H118.3C110.53 249.158 104.232 255.456 104.232 263.226V313.87C104.232 321.639 110.53 327.938 118.3 327.938H168.944C176.713 327.938 183.012 321.639 183.012 313.87V263.226C183.012 255.456 176.713 249.158 168.944 249.158Z" fill="white" fill-opacity="0.59"/>
<path d="M168.944 248.689H118.3C110.271 248.689 103.763 255.197 103.763 263.226V313.87C103.763 321.898 110.271 328.406 118.3 328.406H168.944C176.972 328.406 183.48 321.898 183.48 313.87V263.226C183.48 255.197 176.972 248.689 168.944 248.689Z" fill="white" fill-opacity="0.59" stroke="white" stroke-opacity="0.2" stroke-width="0.937853"/>
<path d="M156.55 288.795V288.847V288.917V288.97V289.023L156.568 289.093V289.145V289.198L156.585 289.268V289.321L156.603 289.373L156.62 289.444V289.496L156.638 289.566L156.655 289.619L156.673 289.689V289.759L156.69 289.812L156.708 289.882L156.726 289.952L156.743 290.005L156.778 290.075L156.796 290.145L156.813 290.215L156.831 290.285L156.848 290.356L156.883 290.426L156.901 290.513L156.918 290.584L156.954 290.654L156.971 290.724L157.006 290.812L157.024 290.882L157.059 290.97L157.076 291.057L157.111 291.145L157.147 291.215L157.164 291.303L157.199 291.391L157.234 291.478L157.252 291.583L157.287 291.671L157.304 291.759L157.339 291.864L157.375 291.952L157.392 292.057L157.427 292.162L157.462 292.25L157.48 292.355L157.515 292.46L157.55 292.566L157.567 292.689L157.603 292.794L157.62 292.899L157.655 293.022L157.673 293.127L157.708 293.25L157.725 293.373L157.743 293.495L157.778 293.618L157.796 293.741L157.813 293.864L157.831 294.004L157.866 294.127L157.883 294.267L157.901 294.39L157.918 294.53V294.671L157.936 294.811L157.953 294.951L157.971 295.092V295.232L157.988 295.372V295.53V295.67L158.006 295.828V295.986V296.126V296.284L157.988 296.442V296.6V296.758L157.971 296.933V297.091L157.953 297.249L157.936 297.424L157.918 297.6L157.901 297.758L157.883 297.933L157.866 298.109L157.831 298.284L157.796 298.442L157.778 298.617L157.743 298.81L157.708 298.986L157.673 299.161L157.62 299.336L157.585 299.512L157.532 299.705L157.48 299.88L157.427 300.073L157.375 300.248L157.322 300.441L157.252 300.617L157.199 300.81L157.129 301.003L157.059 301.178L156.989 301.371L156.918 301.564L156.831 301.739L156.761 301.932L156.673 302.125L156.585 302.318L156.498 302.494L156.392 302.687L156.305 302.88L156.199 303.072L156.094 303.265L155.989 303.441L155.884 303.634L155.761 303.827L155.656 304.02L155.533 304.195L155.41 304.388L155.287 304.581L155.147 304.756L155.024 304.949L154.884 305.125L154.743 305.318L154.603 305.493L154.445 305.686L154.305 305.861L154.147 306.037L153.989 306.212L153.831 306.388L153.674 306.581L153.498 306.738L153.34 306.914L153.165 307.089L152.989 307.265L152.796 307.423L152.621 307.598L152.428 307.756L152.235 307.931L152.042 308.089L151.849 308.247L151.656 308.405L151.446 308.563L151.235 308.703L151.042 308.861L150.814 309.001L150.604 309.159L150.393 309.299L150.165 309.44L149.937 309.58L149.709 309.72L149.481 309.843L149.253 309.983L149.008 310.106L148.78 310.229L148.534 310.352L148.289 310.475L148.043 310.58L147.797 310.703L147.552 310.808L147.289 310.913L147.026 311.018L146.78 311.106L146.517 311.211L146.254 311.299L145.973 311.387L145.71 311.474L145.447 311.545L145.166 311.632L144.886 311.702L144.623 311.773L144.342 311.843L144.061 311.895L143.781 311.965L143.5 312.018L143.202 312.071L142.921 312.106L142.623 312.158L142.342 312.194L142.044 312.229L141.764 312.264L141.465 312.281L141.167 312.299L140.869 312.316L140.571 312.334H140.273L139.974 312.351H139.676L139.378 312.334H139.08L138.764 312.316L138.466 312.299L138.168 312.281L137.852 312.246L137.554 312.211L137.256 312.176L136.94 312.141L136.642 312.088L136.344 312.036L136.028 311.983L135.73 311.93L135.431 311.86L135.133 311.79L134.817 311.72L134.519 311.65L134.221 311.562L133.923 311.474L133.625 311.387L133.327 311.281L133.028 311.194L132.73 311.088L132.432 310.966L132.134 310.86L131.836 310.738L131.555 310.615L131.257 310.492L130.976 310.352L130.678 310.211L130.397 310.071L130.117 309.931L129.836 309.773L129.555 309.615L129.275 309.457L128.994 309.299L128.713 309.124L128.45 308.949L128.17 308.773L127.907 308.598L127.643 308.405L127.38 308.229L127.117 308.036L126.872 307.826L126.609 307.633L126.363 307.423L126.117 307.212L125.872 307.002L125.626 306.791L125.381 306.563L125.153 306.335L124.907 306.107L124.679 305.879L124.451 305.651L124.241 305.405L124.013 305.16L123.802 304.914L123.592 304.669L123.381 304.423L123.171 304.16L122.978 303.914L122.767 303.651L122.574 303.388L122.381 303.108L122.206 302.844L122.03 302.564L121.838 302.301L121.662 302.02L121.504 301.739L121.329 301.459L121.171 301.161L121.013 300.88L120.873 300.582L120.715 300.301L120.575 300.003L120.434 299.705L120.294 299.407L120.171 299.108L120.048 298.81L119.926 298.494L119.803 298.196L119.698 297.88L119.592 297.582L119.487 297.267L119.382 296.951L119.294 296.635L119.206 296.319L119.119 296.004L119.049 295.688L118.961 295.372L118.908 295.056L118.838 294.741L118.768 294.425L118.715 294.109L118.663 293.776L118.628 293.46L118.593 293.145L118.557 292.811L118.522 292.496L118.487 292.18L118.47 291.847L118.452 291.531V291.215L118.435 290.882V290.566V290.25L118.452 289.917V289.601L118.47 289.286L118.505 288.97L118.522 288.654L118.557 288.338L118.593 288.023L118.628 287.707L118.68 287.391L118.733 287.076L118.786 286.76L118.838 286.462L118.908 286.146L118.978 285.848L119.049 285.532L119.119 285.234L119.206 284.936L119.294 284.637L119.382 284.339L119.47 284.041L119.575 283.743L119.663 283.445L119.768 283.164L119.891 282.883L119.996 282.585L120.119 282.305L120.241 282.024L120.364 281.743L120.487 281.48L120.627 281.199L120.768 280.936L120.908 280.656L121.048 280.393L121.206 280.13L121.346 279.884L121.504 279.621L121.662 279.375L121.82 279.112L121.978 278.867L122.153 278.621L122.329 278.393L122.504 278.147L122.679 277.919L122.855 277.691L123.03 277.463L123.223 277.235L123.416 277.007L123.592 276.797L123.785 276.586L123.995 276.376L124.188 276.165L124.381 275.955L124.591 275.762L124.784 275.569L124.995 275.376L125.205 275.183L125.416 274.99L125.626 274.815L125.837 274.639L126.065 274.464L126.275 274.289L126.503 274.131L126.714 273.973L126.942 273.815L127.17 273.657L127.398 273.499L127.608 273.359L127.836 273.219L128.064 273.078L128.31 272.938L128.538 272.815L128.766 272.675L128.994 272.552L129.222 272.447L129.468 272.324L129.696 272.219L129.924 272.096L130.169 271.991L130.397 271.903L130.643 271.798L130.871 271.71L131.116 271.622L131.344 271.535L131.59 271.447L131.818 271.377L132.046 271.307L132.292 271.237L132.52 271.166L132.765 271.096L132.993 271.044L133.221 270.991L133.467 270.938L133.695 270.886L133.923 270.833L134.168 270.798L134.397 270.763L134.625 270.728L134.853 270.693L135.081 270.658L135.309 270.64L135.537 270.623L135.765 270.605L135.993 270.588L136.203 270.57H136.431L136.659 270.552H136.87H137.098L137.308 270.57H137.519H137.729L137.94 270.588L138.15 270.605L138.361 270.623L138.571 270.64L138.782 270.658L138.975 270.693L139.185 270.71L139.378 270.745L139.589 270.78L139.781 270.816L139.974 270.851L140.167 270.886L140.36 270.938L140.536 270.973L140.729 271.026L140.904 271.061L141.097 271.114L141.272 271.166L141.448 271.219L141.623 271.272L141.799 271.342L141.974 271.394L142.132 271.447L142.307 271.517L142.465 271.57L142.623 271.64L142.781 271.71L142.939 271.78L143.097 271.85L143.254 271.921L143.412 271.991L143.553 272.061L143.693 272.131L143.851 272.201L143.991 272.271L144.131 272.359L144.254 272.429L144.395 272.499L144.535 272.587L144.658 272.657L144.78 272.745L144.921 272.815L145.044 272.903L145.149 272.991L145.272 273.061L145.394 273.148L145.5 273.219L145.622 273.306L145.728 273.394L145.833 273.464L145.938 273.552L146.043 273.64L146.149 273.71L146.254 273.797L146.342 273.885L146.447 273.955L146.535 274.043L146.64 274.131L146.727 274.201L146.815 274.289L146.903 274.376L146.991 274.446L147.061 274.534L147.148 274.604L147.236 274.692L147.306 274.762L147.376 274.832L147.464 274.92L147.534 274.99L147.604 275.06L147.675 275.148L147.745 275.218L147.815 275.288L147.885 275.359L147.938 275.429L148.008 275.499L148.061 275.569L148.131 275.639L148.183 275.709L148.253 275.762L148.306 275.832L148.359 275.902L148.411 275.955L148.482 276.025L148.534 276.095L148.587 276.148L148.639 276.2L148.692 276.271L148.745 276.323L148.797 276.376L148.832 276.428L148.885 276.481L148.938 276.534L148.99 276.586L149.043 276.639L149.078 276.692L149.131 276.744L149.183 276.779L149.236 276.832L149.271 276.867L149.323 276.92L149.376 276.955L149.411 277.007L149.464 277.042L149.516 277.077L149.551 277.113L149.604 277.148L149.657 277.183L149.692 277.218L149.744 277.253L149.797 277.288L149.85 277.323L149.885 277.358L149.937 277.376L149.99 277.411L150.043 277.446L150.095 277.463L150.148 277.498L150.2 277.516L150.253 277.551L150.306 277.569L150.358 277.586L150.411 277.621L150.464 277.639L150.534 277.656L150.586 277.674L150.639 277.691L150.709 277.726L150.762 277.744L150.832 277.762L150.885 277.779L150.955 277.797L151.025 277.814L151.095 277.832L151.148 277.849L151.218 277.867L151.288 277.884L151.358 277.902H151.428L151.516 277.919L151.586 277.937L151.656 277.955L151.744 277.972L151.814 277.99L151.902 278.007L151.972 278.025L152.06 278.042L152.147 278.06L152.235 278.077L152.323 278.095L152.411 278.112L152.498 278.13L152.586 278.147L152.674 278.165L152.779 278.183L152.867 278.218L152.972 278.235L153.06 278.253L153.165 278.288L153.253 278.305L153.358 278.323L153.463 278.358L153.568 278.393L153.674 278.411L153.779 278.446L153.902 278.481L154.007 278.498L154.112 278.533L154.235 278.568L154.34 278.604L154.463 278.656L154.568 278.691L154.691 278.726L154.814 278.779L154.936 278.814L155.042 278.867L155.164 278.902L155.287 278.954L155.41 279.007L155.55 279.06L155.673 279.112L155.796 279.165L155.919 279.235L156.059 279.288L156.182 279.358L156.305 279.41L156.445 279.481L156.568 279.551L156.708 279.621L156.848 279.691L156.971 279.761L157.111 279.849L157.234 279.919L157.375 280.007L157.515 280.094L157.655 280.182L157.778 280.27L157.918 280.358L158.059 280.463L158.199 280.551L158.339 280.656L158.462 280.761L158.602 280.866L158.743 280.971L158.883 281.077L159.023 281.182L159.146 281.305L159.286 281.428L159.427 281.55L159.567 281.673L159.69 281.796L159.83 281.919L159.971 282.059L160.093 282.199L160.234 282.322L160.356 282.462L160.497 282.62L160.62 282.761L160.76 282.901L160.883 283.059L161.005 283.217L161.128 283.375L161.251 283.532L161.374 283.69L161.497 283.866L161.619 284.024L161.742 284.199L161.865 284.374L161.988 284.55L162.093 284.725L162.216 284.918L162.321 285.093L162.426 285.286L162.531 285.479L162.637 285.672L162.742 285.865L162.847 286.058L162.952 286.269L163.04 286.479L163.145 286.672L163.233 286.883L163.321 287.093L163.408 287.321L163.496 287.532L163.584 287.742L163.654 287.97L163.742 288.198L163.812 288.426L163.882 288.654L163.952 288.882L164.022 289.11L164.093 289.338L164.145 289.584L164.198 289.829L164.25 290.057L164.303 290.303L164.356 290.549L164.408 290.794L164.443 291.04L164.478 291.303L164.514 291.548L164.549 291.794L164.584 292.057L164.601 292.32L164.619 292.566L164.636 292.829L164.654 293.092L164.671 293.355V293.618V293.881V294.144V294.425L164.654 294.688L164.636 294.951L164.619 295.232L164.601 295.495L164.584 295.776L164.549 296.039L164.514 296.319L164.478 296.582L164.443 296.863L164.391 297.144L164.338 297.407L164.285 297.688L164.233 297.968L164.163 298.231L164.093 298.512L164.022 298.793L163.952 299.056L163.882 299.336L163.794 299.617L163.707 299.88L163.619 300.161L163.514 300.424L163.408 300.705L163.303 300.968L163.198 301.248L163.093 301.511L162.97 301.792L162.847 302.055L162.724 302.318L162.584 302.581L162.444 302.844L162.321 303.108L162.163 303.371L162.023 303.634L161.865 303.897L161.707 304.16L161.549 304.406L161.391 304.669L161.216 304.914L161.041 305.16L160.865 305.423L160.69 305.668L160.497 305.896L160.321 306.142L160.128 306.388L159.918 306.616L159.725 306.861L159.514 307.089L159.304 307.317L159.094 307.545L158.883 307.773L158.655 308.001L158.427 308.212L158.216 308.422L157.971 308.633L157.743 308.843L157.497 309.054L157.269 309.264L157.024 309.457L156.778 309.65L156.515 309.843L156.269 310.036L156.006 310.229L155.743 310.404L155.48 310.58L155.217 310.755L154.936 310.931L154.673 311.106L154.393 311.264L154.112 311.422L153.831 311.58L153.551 311.737L153.27 311.878L152.972 312.018L152.691 312.158L152.393 312.299L152.095 312.422L151.797 312.562L151.498 312.667L151.2 312.79L150.885 312.913L150.586 313.018L150.271 313.123L149.972 313.228L149.657 313.316L149.341 313.404L149.025 313.492L148.71 313.579L148.394 313.649L148.078 313.72L147.762 313.79L147.429 313.86L147.113 313.912L146.798 313.965L146.464 314.018L146.149 314.053L145.815 314.088L145.482 314.123L145.166 314.158L144.833 314.176L144.517 314.193L144.184 314.211L143.851 314.228H143.518H143.202H142.869L142.535 314.211L142.22 314.193L141.886 314.176L141.553 314.158L141.237 314.123L140.904 314.088L140.588 314.053L140.255 314L139.939 313.948L139.606 313.895L139.29 313.842L138.975 313.772L138.641 313.702L138.326 313.632L138.01 313.562L137.694 313.474L137.378 313.386L137.063 313.299L136.764 313.193L136.449 313.106L136.151 313L135.835 312.878L135.537 312.772L135.238 312.65L134.923 312.527L134.642 312.404L134.344 312.264L134.046 312.141L133.748 312.001L133.467 311.843L133.186 311.702L132.888 311.545L132.607 311.387L132.344 311.229L132.064 311.071L131.783 310.896L131.52 310.72L131.257 310.545L130.994 310.369L130.731 310.194L130.467 310.001L130.222 309.808L129.976 309.615L129.713 309.422L129.485 309.212L129.24 309.019L128.994 308.808L128.766 308.598L128.538 308.387L128.31 308.159L128.082 307.949L127.871 307.721L127.643 307.493L127.433 307.282L127.222 307.037L127.03 306.809L126.819 306.581L126.626 306.335L126.433 306.089L126.258 305.861L126.065 305.616L125.889 305.37L125.714 305.107L125.539 304.862L125.363 304.616L125.205 304.353L125.047 304.107L124.89 303.844L124.732 303.581L124.591 303.318L124.451 303.055L124.311 302.792L124.17 302.529L124.048 302.266L123.925 302.002L123.802 301.722L123.679 301.459L123.574 301.196L123.451 300.915L123.364 300.652L123.258 300.371L123.153 300.108L123.065 299.827L122.978 299.547L122.89 299.284L122.82 299.003L122.75 298.722L122.679 298.459L122.609 298.179L122.557 297.898L122.487 297.635L122.434 297.354L122.381 297.074L122.346 296.811L122.311 296.53L122.259 296.267L122.241 295.986L122.206 295.723L122.188 295.442L122.153 295.179V294.899L122.136 294.636L122.118 294.372V294.092V293.829V293.566L122.136 293.302V293.039L122.153 292.776L122.171 292.513L122.188 292.268L122.223 292.004L122.241 291.759L122.276 291.496L122.311 291.25L122.346 290.987L122.399 290.742L122.434 290.496L122.487 290.25L122.539 290.005L122.592 289.777L122.662 289.531L122.715 289.303L122.785 289.058L122.855 288.83L122.925 288.602L122.995 288.374L123.065 288.146L123.153 287.917L123.223 287.707L123.311 287.479L123.399 287.269L123.486 287.058L123.574 286.848L123.662 286.637L123.767 286.427L123.855 286.234L123.96 286.023L124.065 285.83L124.17 285.637L124.276 285.444L124.381 285.251L124.486 285.058L124.609 284.883L124.714 284.69L124.837 284.515L124.96 284.339L125.065 284.164L125.188 283.988L125.311 283.831L125.433 283.655L125.556 283.497L125.679 283.339L125.802 283.182L125.942 283.024L126.065 282.883L126.188 282.726L126.328 282.585L126.451 282.445L126.591 282.305L126.714 282.164L126.854 282.024L126.994 281.901L127.117 281.761L127.258 281.638L127.398 281.515L127.521 281.392L127.661 281.287L127.801 281.164L127.942 281.059L128.082 280.954L128.205 280.831L128.345 280.726L128.485 280.638L128.626 280.533L128.766 280.445L128.889 280.34L129.029 280.252L129.169 280.165L129.31 280.077L129.433 279.989L129.573 279.902L129.713 279.831L129.836 279.761L129.976 279.673L130.117 279.603L130.239 279.533L130.38 279.463L130.503 279.393L130.643 279.34L130.766 279.27L130.888 279.217L131.029 279.165L131.152 279.095L131.274 279.042L131.397 278.989L131.52 278.954L131.643 278.902L131.765 278.849L131.888 278.814L132.011 278.761L132.116 278.726L132.239 278.674L132.362 278.639L132.467 278.604L132.59 278.568L132.695 278.533L132.8 278.498L132.923 278.463L133.028 278.446L133.134 278.411L133.239 278.375L133.344 278.358L133.449 278.323L133.555 278.305L133.642 278.27L133.748 278.253L133.853 278.235L133.94 278.2L134.046 278.183L134.133 278.165L134.221 278.147L134.309 278.13L134.397 278.112L134.484 278.095L134.572 278.077L134.66 278.06L134.747 278.042L134.835 278.025L134.905 278.007L134.993 277.99L135.063 277.972L135.151 277.955L135.221 277.937L135.291 277.919L135.361 277.902L135.431 277.884L135.519 277.867L135.572 277.849H135.642L135.712 277.832L135.782 277.814L135.852 277.797L135.905 277.779L135.975 277.762L136.028 277.726L136.098 277.709L136.151 277.691L136.221 277.674L136.273 277.656L136.326 277.639L136.379 277.604L136.449 277.586L136.501 277.569L136.554 277.534L136.607 277.516L136.659 277.498L136.712 277.463L136.764 277.428L136.8 277.411L136.852 277.376L136.905 277.341L136.957 277.323L137.01 277.288L137.045 277.253L137.098 277.218L137.15 277.183L137.203 277.148L137.238 277.113L137.291 277.077L137.343 277.025L137.378 276.99L137.431 276.955L137.484 276.902L137.519 276.867L137.571 276.814L137.624 276.779L137.659 276.727L137.712 276.674L137.764 276.621L137.817 276.586L137.852 276.534L137.905 276.481L137.957 276.428L138.01 276.358L138.062 276.306L138.115 276.253L138.168 276.2L138.22 276.13L138.273 276.078L138.326 276.008L138.378 275.955L138.431 275.885L138.501 275.815L138.554 275.762L138.606 275.692L138.676 275.622L138.729 275.551L138.799 275.481L138.869 275.411L138.922 275.341L138.992 275.271L139.062 275.201L139.132 275.13L139.203 275.043L139.273 274.973L139.343 274.902L139.431 274.815L139.501 274.745L139.571 274.674L139.659 274.587L139.746 274.517L139.817 274.429L139.904 274.359L139.992 274.271L140.08 274.183L140.167 274.113L140.273 274.025L140.36 273.955L140.466 273.868L140.553 273.78L140.658 273.71L140.764 273.622L140.869 273.534L140.974 273.464L141.079 273.376L141.185 273.289L141.307 273.219L141.413 273.131L141.535 273.043L141.658 272.973L141.781 272.885L141.904 272.798L142.027 272.727L142.149 272.64L142.29 272.57L142.413 272.499L142.553 272.412L142.693 272.342L142.833 272.254L142.974 272.184L143.114 272.114L143.272 272.043L143.412 271.973L143.57 271.903L143.728 271.833L143.868 271.763L144.026 271.693L144.202 271.622L144.36 271.57L144.517 271.5L144.693 271.447L144.851 271.377L145.026 271.324L145.201 271.272L145.377 271.219L145.552 271.166L145.728 271.114L145.921 271.061L146.096 271.008L146.289 270.973L146.482 270.921L146.675 270.886L146.85 270.851L147.061 270.798L147.254 270.763L147.447 270.745L147.64 270.71L147.85 270.675L148.061 270.658L148.253 270.64L148.464 270.623L148.674 270.605L148.885 270.588L149.095 270.57H149.306L149.534 270.552H149.744H149.955L150.183 270.57H150.411H150.621L150.849 270.588L151.078 270.605L151.306 270.623L151.534 270.64L151.762 270.675L151.99 270.693L152.218 270.728L152.446 270.763L152.674 270.798L152.902 270.851L153.147 270.886L153.375 270.938L153.603 270.991L153.849 271.061L154.077 271.114L154.305 271.184L154.551 271.237L154.779 271.307L155.024 271.394L155.252 271.465L155.498 271.552L155.726 271.64L155.971 271.728L156.199 271.815L156.445 271.921L156.673 272.026L156.901 272.131L157.147 272.236L157.375 272.342L157.603 272.464L157.848 272.587L158.076 272.71L158.304 272.833L158.532 272.973L158.76 273.096L158.988 273.236L159.216 273.394L159.444 273.534L159.672 273.692L159.9 273.85L160.111 274.008L160.339 274.166L160.549 274.324L160.777 274.499L160.988 274.674L161.198 274.85L161.409 275.043L161.619 275.218L161.83 275.411L162.04 275.604L162.251 275.797L162.444 276.008L162.637 276.2L162.847 276.411L163.04 276.621L163.233 276.832L163.426 277.06L163.601 277.27L163.794 277.498L163.97 277.726L164.145 277.955L164.321 278.2L164.496 278.428L164.671 278.674L164.829 278.919L165.005 279.165L165.163 279.428L165.32 279.673L165.478 279.937L165.619 280.182L165.776 280.445L165.917 280.726L166.057 280.989L166.18 281.252L166.32 281.533L166.443 281.813L166.583 282.077L166.689 282.357L166.811 282.655L166.934 282.936L167.039 283.217L167.145 283.515L167.25 283.813L167.338 284.094L167.425 284.392L167.513 284.69L167.601 284.988L167.688 285.304L167.758 285.602L167.829 285.9L167.899 286.216L167.969 286.514L168.022 286.83L168.074 287.146L168.127 287.461L168.162 287.76L168.197 288.075L168.232 288.391L168.267 288.707L168.302 289.04L168.32 289.356L168.337 289.672V289.987L168.355 290.303V290.636V290.952L168.337 291.268V291.601L168.32 291.917L168.285 292.232L168.267 292.566L168.232 292.881L168.197 293.197L168.162 293.53L168.109 293.846L168.057 294.162L168.004 294.495L167.934 294.811L167.881 295.127L167.811 295.442L167.723 295.758L167.653 296.074L167.566 296.39L167.478 296.705L167.39 297.021L167.285 297.337L167.18 297.635L167.074 297.951L166.952 298.249L166.846 298.565L166.724 298.863L166.601 299.161L166.461 299.477L166.32 299.775L166.18 300.056L166.04 300.354L165.899 300.652L165.741 300.933L165.583 301.231L165.426 301.511L165.25 301.792L165.092 302.073L164.917 302.353L164.724 302.634L164.549 302.897L164.356 303.178L164.163 303.441L163.97 303.704L163.777 303.967L163.584 304.213L163.373 304.476L163.163 304.721L162.952 304.967L162.724 305.212L162.514 305.458L162.286 305.704L162.058 305.932L161.83 306.16L161.602 306.388L161.356 306.616L161.111 306.826L160.865 307.054L160.62 307.265L160.374 307.475L160.128 307.668L159.865 307.879L159.62 308.072L159.357 308.264L159.094 308.457L158.83 308.633L158.55 308.808L158.287 308.984L158.006 309.159L157.743 309.334L157.462 309.492L157.182 309.65L156.901 309.808L156.62 309.948L156.34 310.106L156.041 310.247L155.761 310.369L155.48 310.51L155.182 310.632L154.884 310.755L154.603 310.878L154.305 311.001L154.007 311.106L153.709 311.211L153.41 311.299L153.112 311.404L152.814 311.492L152.516 311.58L152.2 311.667L151.902 311.737L151.604 311.808L151.306 311.878L150.99 311.948L150.692 312.001L150.393 312.053L150.078 312.106L149.78 312.141L149.481 312.194L149.166 312.229L148.867 312.264L148.569 312.281L148.253 312.299L147.955 312.316L147.657 312.334H147.359L147.061 312.351H146.763L146.447 312.334H146.149L145.868 312.316L145.57 312.299L145.272 312.281L144.973 312.246L144.675 312.229L144.395 312.194L144.096 312.141L143.816 312.106L143.518 312.053L143.237 312.001L142.956 311.948L142.676 311.895L142.395 311.825L142.114 311.755L141.834 311.685L141.571 311.615L141.29 311.545L141.027 311.457L140.746 311.369L140.483 311.281L140.22 311.194L139.957 311.088L139.711 310.983L139.448 310.896L139.203 310.79L138.94 310.667L138.694 310.562L138.448 310.439L138.203 310.317L137.957 310.194L137.729 310.071L137.484 309.948L137.256 309.826L137.028 309.685L136.8 309.545L136.572 309.405L136.361 309.264L136.133 309.124L135.923 308.984L135.712 308.826L135.502 308.685L135.291 308.528L135.098 308.37L134.905 308.212L134.695 308.054L134.502 307.896L134.326 307.721L134.133 307.563L133.958 307.405L133.765 307.23L133.59 307.054L133.414 306.879L133.256 306.703L133.081 306.528L132.923 306.353L132.765 306.177L132.607 306.002L132.45 305.826L132.309 305.651L132.151 305.458L132.011 305.283L131.871 305.09L131.748 304.914L131.608 304.721L131.485 304.546L131.362 304.353L131.239 304.16L131.116 303.967L130.994 303.792L130.888 303.599L130.783 303.406L130.66 303.213L130.573 303.037L130.467 302.844L130.362 302.651L130.275 302.459L130.187 302.266L130.099 302.09L130.011 301.897L129.941 301.704L129.854 301.511L129.783 301.336L129.713 301.143L129.643 300.95L129.573 300.775L129.52 300.582L129.45 300.406L129.397 300.213L129.345 300.038L129.292 299.845L129.24 299.67L129.205 299.477L129.152 299.301L129.117 299.126L129.082 298.95L129.047 298.775L129.012 298.582L128.977 298.407L128.959 298.249L128.924 298.073L128.906 297.898L128.889 297.723L128.871 297.565L128.854 297.389L128.836 297.231L128.819 297.056V296.898L128.801 296.74V296.565L128.784 296.407V296.249V296.109V295.951V295.793L128.801 295.653V295.495V295.355L128.819 295.197L128.836 295.056V294.916L128.854 294.776L128.871 294.636L128.889 294.495L128.906 294.372L128.924 294.232L128.941 294.092L128.959 293.969L128.977 293.846L128.994 293.723L129.029 293.601L129.047 293.478L129.064 293.355L129.099 293.232L129.117 293.109L129.152 293.004L129.169 292.881L129.205 292.776L129.222 292.653L129.257 292.548L129.275 292.443L129.31 292.338L129.345 292.232L129.362 292.127L129.397 292.04L129.433 291.934L129.45 291.847L129.485 291.741L129.52 291.654L129.538 291.566L129.573 291.461L129.59 291.373L129.626 291.285L129.661 291.198L129.678 291.127L129.713 291.04L129.731 290.952L129.766 290.882L129.783 290.794L129.818 290.724L129.836 290.636L129.871 290.566L129.889 290.496L129.924 290.408L129.941 290.338L129.959 290.268L129.976 290.198L130.011 290.128L130.029 290.075L130.046 290.005L130.064 289.935L130.082 289.864L130.099 289.794L130.117 289.742L130.134 289.672V289.619L130.152 289.549L130.169 289.496L130.187 289.426V289.373L130.204 289.303V289.251L130.222 289.198V289.128V289.075L130.239 289.023V288.952V288.9V288.847V288.777V288.724V288.672V288.602L130.222 288.549V288.496V288.426L130.204 288.374V288.321V288.251L130.187 288.198L130.169 288.128V288.075L130.152 288.005L130.134 287.953L130.117 287.882L130.099 287.83L130.082 287.76L130.064 287.689L130.046 287.637L130.029 287.567L130.011 287.497L129.994 287.426L129.976 287.356L129.959 287.286L129.924 287.216L129.906 287.146L129.889 287.076L129.854 286.988L129.836 286.918L129.801 286.848L129.783 286.76L129.748 286.69L129.731 286.602L129.696 286.514L129.678 286.427L129.643 286.356L129.608 286.269L129.59 286.181L129.555 286.093L129.52 285.988L129.503 285.9L129.468 285.813L129.45 285.707L129.415 285.62L129.38 285.514L129.362 285.409L129.327 285.304L129.292 285.199L129.275 285.093L129.24 284.988L129.222 284.883L129.187 284.778L129.152 284.655L129.134 284.55L129.099 284.427L129.082 284.304L129.064 284.199L129.029 284.076L129.012 283.953L128.994 283.813L128.977 283.69L128.941 283.567L128.924 283.427L128.906 283.304L128.889 283.164L128.871 283.041L128.854 282.901V282.761L128.836 282.62L128.819 282.48V282.322L128.801 282.182V282.024V281.884L128.784 281.726V281.585V281.428V281.27L128.801 281.112V280.954V280.796L128.819 280.621V280.463L128.836 280.305L128.854 280.13L128.871 279.972L128.889 279.796L128.906 279.621L128.941 279.445L128.959 279.27L128.994 279.095L129.029 278.919L129.064 278.744L129.099 278.568L129.134 278.393L129.169 278.218L129.222 278.025L129.275 277.849L129.31 277.674L129.362 277.481L129.415 277.306L129.485 277.113L129.538 276.937L129.608 276.744L129.678 276.551L129.748 276.376L129.818 276.183L129.889 275.99L129.976 275.797L130.046 275.622L130.134 275.429L130.222 275.236L130.31 275.043L130.415 274.867L130.503 274.674L130.608 274.481L130.713 274.289L130.818 274.096L130.924 273.92L131.046 273.727L131.169 273.534L131.274 273.341L131.397 273.166L131.537 272.973L131.66 272.798L131.801 272.605L131.941 272.412L132.081 272.236L132.222 272.061L132.362 271.868L132.52 271.693L132.678 271.517L132.835 271.342L132.993 271.149L133.151 270.973L133.327 270.798L133.484 270.64L133.66 270.465L133.853 270.289L134.028 270.131L134.204 269.956L134.397 269.798L134.589 269.623L134.782 269.465L134.975 269.307L135.186 269.149L135.379 269.009L135.589 268.851L135.8 268.693L136.01 268.553L136.221 268.412L136.449 268.255L136.677 268.114L136.887 267.992L137.115 267.851L137.343 267.711L137.589 267.588L137.817 267.465L138.062 267.343L138.308 267.22L138.554 267.097L138.799 266.992L139.045 266.869L139.29 266.764L139.553 266.658L139.817 266.553L140.062 266.466L140.325 266.36L140.588 266.273L140.869 266.185L141.132 266.097L141.395 266.027L141.676 265.939L141.956 265.869L142.237 265.799L142.5 265.729L142.781 265.676L143.079 265.624L143.36 265.571L143.64 265.518L143.921 265.466L144.219 265.431L144.517 265.396L144.798 265.36L145.096 265.325L145.394 265.308L145.693 265.273H145.973L146.271 265.255L146.57 265.238H146.885H147.184L147.482 265.255H147.78L148.078 265.273L148.376 265.29L148.692 265.325L148.99 265.343L149.288 265.378L149.604 265.413L149.902 265.466L150.2 265.501L150.516 265.553L150.814 265.606L151.113 265.676L151.428 265.729L151.727 265.799L152.025 265.887L152.323 265.957L152.639 266.045L152.937 266.132L153.235 266.22L153.533 266.325L153.831 266.43L154.13 266.536L154.428 266.641L154.708 266.764L155.007 266.886L155.305 267.009L155.585 267.132L155.884 267.272L156.164 267.413L156.445 267.553L156.743 267.693L157.024 267.851L157.304 268.009L157.567 268.167L157.848 268.325L158.129 268.5L158.392 268.676L158.673 268.851L158.936 269.026L159.199 269.219L159.462 269.412L159.725 269.605L159.971 269.798L160.234 269.991L160.479 270.202L160.725 270.412L160.97 270.623L161.216 270.851L161.461 271.061L161.689 271.289L161.918 271.517L162.146 271.745L162.374 271.991L162.602 272.236L162.812 272.464L163.04 272.71L163.251 272.973L163.461 273.219L163.654 273.482L163.865 273.727L164.057 273.99L164.25 274.253L164.443 274.534L164.619 274.797L164.812 275.078L164.987 275.341L165.163 275.622L165.32 275.902L165.478 276.2L165.654 276.481L165.812 276.762L165.952 277.06L166.11 277.358L166.25 277.639L166.39 277.937L166.513 278.235L166.653 278.551L166.776 278.849L166.899 279.147L167.004 279.463L167.11 279.761L167.215 280.077L167.32 280.393L167.425 280.691L167.513 281.007L167.601 281.322L167.688 281.638L167.758 281.954L167.829 282.269L167.899 282.585L167.969 282.918L168.022 283.234L168.074 283.55L168.127 283.866L168.179 284.199L168.215 284.515L168.25 284.83L168.267 285.164L168.302 285.479L168.32 285.795L168.337 286.128L168.355 286.444V286.76V287.093V287.409L168.337 287.725L168.32 288.058L168.302 288.374L168.285 288.689L168.25 289.005L168.232 289.321L168.197 289.636L168.144 289.952L168.109 290.268L168.057 290.566L168.004 290.882L167.934 291.198L167.864 291.496L167.811 291.811L167.723 292.11L167.653 292.408L167.566 292.724L167.478 293.022L167.39 293.32L167.302 293.618L167.197 293.899L167.092 294.197L166.987 294.478L166.881 294.776L166.759 295.056L166.653 295.337L166.531 295.618L166.39 295.898L166.268 296.179L166.127 296.442L166.004 296.705L165.847 296.986L165.706 297.249L165.566 297.512L165.408 297.758L165.25 298.021L165.092 298.266L164.934 298.529L164.777 298.775L164.601 299.003L164.426 299.249L164.25 299.494L164.075 299.722L163.9 299.95L163.724 300.178L163.531 300.406L163.338 300.617L163.145 300.845L162.952 301.055L162.759 301.266L162.567 301.476L162.356 301.669L162.163 301.862L161.953 302.073L161.742 302.248L161.532 302.441L161.321 302.634L161.111 302.809L160.9 302.985L160.69 303.16L160.462 303.318L160.251 303.493L160.023 303.651L159.795 303.809L159.585 303.967L159.357 304.107L159.129 304.265L158.901 304.406L158.673 304.546L158.445 304.669L158.216 304.809L157.971 304.932L157.743 305.055L157.515 305.177L157.287 305.283L157.041 305.405L156.813 305.511L156.568 305.616L156.34 305.704L156.112 305.809L155.866 305.896L155.638 305.984L155.392 306.072L155.164 306.16L154.919 306.23L154.691 306.3L154.445 306.37L154.217 306.44L153.989 306.493L153.744 306.563L153.516 306.616L153.27 306.668L153.042 306.721L152.814 306.756L152.586 306.791L152.34 306.844L152.112 306.879L151.884 306.896L151.656 306.931L151.428 306.949L151.2 306.966L150.99 306.984L150.762 307.002L150.534 307.019H150.306L150.095 307.037H149.867H149.657L149.446 307.019H149.218L149.008 307.002H148.797L148.587 306.984L148.376 306.966L148.183 306.949L147.973 306.914L147.762 306.896L147.569 306.861L147.359 306.844L147.166 306.809L146.973 306.774L146.78 306.738L146.587 306.686L146.394 306.651L146.219 306.598L146.026 306.563L145.85 306.51L145.658 306.458L145.482 306.405L145.307 306.353L145.131 306.3L144.956 306.247L144.78 306.177L144.623 306.125L144.447 306.054L144.289 306.002L144.131 305.932L143.974 305.861L143.816 305.809L143.658 305.739L143.5 305.668L143.36 305.598L143.202 305.511L143.062 305.44L142.921 305.37L142.781 305.3L142.641 305.212L142.5 305.142L142.36 305.072L142.237 304.984L142.097 304.914L141.974 304.827L141.851 304.756L141.728 304.669L141.606 304.598L141.483 304.511L141.378 304.423L141.255 304.353L141.15 304.265L141.044 304.178L140.922 304.107L140.816 304.02L140.711 303.932L140.623 303.862L140.518 303.774L140.413 303.686L140.325 303.616L140.238 303.529L140.132 303.441L140.045 303.371L139.957 303.283L139.869 303.213L139.781 303.125L139.711 303.037L139.624 302.967L139.553 302.897L139.466 302.809L139.396 302.739L139.325 302.651L139.238 302.581L139.168 302.511L139.097 302.441L139.027 302.353L138.975 302.283L138.904 302.213L138.834 302.143L138.764 302.073L138.711 302.002L138.641 301.932L138.589 301.88L138.536 301.81L138.466 301.739L138.413 301.669L138.361 301.617L138.308 301.546L138.255 301.494L138.203 301.424L138.15 301.371L138.098 301.318L138.045 301.248L137.992 301.196L137.94 301.143L137.887 301.09L137.834 301.038L137.799 300.985L137.747 300.933L137.694 300.897L137.642 300.845L137.606 300.792L137.554 300.757L137.501 300.705L137.466 300.669L137.413 300.617L137.361 300.582L137.326 300.547L137.273 300.494L137.221 300.459L137.168 300.424L137.133 300.389L137.08 300.354L137.028 300.319L136.993 300.284L136.94 300.266L136.887 300.231L136.835 300.196L136.782 300.178L136.729 300.143L136.677 300.108L136.624 300.091L136.572 300.056L136.519 300.038L136.466 300.02L136.414 299.985L136.361 299.968L136.308 299.95L136.256 299.933L136.186 299.898L136.133 299.88L136.063 299.863L136.01 299.845L135.94 299.827L135.887 299.81L135.817 299.792L135.747 299.775L135.695 299.757L135.624 299.74L135.554 299.722L135.484 299.705L135.414 299.687L135.344 299.67L135.256 299.652H135.186L135.116 299.635L135.028 299.617L134.958 299.599L134.87 299.582L134.8 299.564L134.712 299.547L134.625 299.529L134.537 299.512L134.449 299.494L134.361 299.477L134.274 299.459L134.186 299.442L134.098 299.407L133.993 299.389L133.905 299.371L133.8 299.354L133.712 299.319L133.607 299.301L133.502 299.284L133.414 299.249L133.309 299.231L133.204 299.196L133.099 299.161L132.976 299.143L132.871 299.108L132.765 299.073L132.66 299.038L132.537 299.003L132.432 298.968L132.309 298.933L132.186 298.898L132.081 298.845L131.958 298.81L131.836 298.758L131.713 298.722L131.59 298.67L131.467 298.617L131.344 298.565L131.222 298.512L131.099 298.459L130.976 298.407L130.836 298.354L130.713 298.284L130.59 298.231L130.45 298.161L130.327 298.091L130.187 298.021L130.064 297.951L129.924 297.88L129.783 297.81L129.661 297.723L129.52 297.652L129.38 297.565L129.257 297.477L129.117 297.389L128.977 297.302L128.836 297.214L128.696 297.109L128.573 297.021L128.433 296.916L128.292 296.811L128.152 296.705L128.012 296.6L127.889 296.495L127.749 296.372L127.608 296.267L127.468 296.144L127.345 296.021L127.205 295.898L127.065 295.776L126.942 295.635L126.802 295.513L126.661 295.372L126.538 295.232L126.398 295.092L126.275 294.951L126.135 294.793L126.012 294.653L125.889 294.495L125.749 294.337L125.626 294.179L125.504 294.022L125.381 293.864L125.258 293.688L125.135 293.53L125.012 293.355L124.907 293.18L124.784 293.004L124.679 292.829L124.556 292.636L124.451 292.443L124.346 292.268L124.241 292.075L124.118 291.882L124.03 291.689L123.925 291.478L123.82 291.285L123.732 291.075L123.627 290.864L123.539 290.654L123.451 290.443L123.364 290.233L123.276 290.022L123.188 289.794L123.118 289.566L123.03 289.356L122.96 289.128L122.89 288.9L122.82 288.672L122.75 288.426L122.697 288.198L122.627 287.953L122.574 287.725L122.522 287.479L122.469 287.233L122.416 286.988L122.381 286.742L122.329 286.497L122.294 286.234L122.259 285.988L122.241 285.742L122.206 285.479L122.188 285.216L122.171 284.971L122.153 284.708L122.136 284.444L122.118 284.181V283.918V283.655V283.375V283.111L122.136 282.848L122.153 282.585L122.171 282.305L122.188 282.041L122.223 281.761L122.241 281.498L122.276 281.217L122.311 280.936L122.364 280.673L122.416 280.393L122.451 280.13L122.522 279.849L122.574 279.568L122.644 279.305L122.697 279.024L122.767 278.744L122.855 278.481L122.925 278.2L123.013 277.919L123.1 277.656L123.206 277.376L123.293 277.095L123.399 276.832L123.504 276.551L123.609 276.288L123.732 276.025L123.855 275.744L123.977 275.481L124.1 275.218L124.223 274.955L124.363 274.692L124.504 274.429L124.644 274.166L124.802 273.903L124.96 273.64L125.118 273.376L125.275 273.131L125.433 272.868L125.609 272.622L125.784 272.377L125.96 272.131L126.135 271.886L126.328 271.64L126.521 271.394L126.714 271.149L126.907 270.921L127.117 270.675L127.31 270.447L127.521 270.219L127.731 269.991L127.959 269.781L128.17 269.553L128.398 269.342L128.626 269.114L128.854 268.904L129.099 268.693L129.327 268.5L129.573 268.29L129.818 268.097L130.064 267.886L130.327 267.711L130.573 267.518L130.836 267.325L131.099 267.15L131.362 266.974L131.625 266.799L131.906 266.623L132.169 266.448L132.45 266.29L132.73 266.132L133.011 265.974L133.291 265.834L133.59 265.676L133.87 265.536L134.168 265.396L134.467 265.273L134.747 265.132L135.046 265.01L135.361 264.887L135.659 264.764L135.958 264.659L136.273 264.554L136.572 264.448L136.887 264.343L137.203 264.255L137.519 264.168L137.834 264.08L138.15 263.992L138.466 263.922L138.782 263.852L139.097 263.782L139.413 263.729L139.746 263.659L140.062 263.606L140.395 263.571L140.711 263.519L141.044 263.484L141.36 263.449L141.693 263.431L142.027 263.396L142.342 263.378H142.676L143.009 263.361H143.325H143.658H143.991L144.307 263.378L144.64 263.396L144.973 263.413L145.289 263.449L145.622 263.466L145.956 263.501L146.271 263.554L146.605 263.589L146.92 263.641L147.236 263.694L147.569 263.764L147.885 263.817L148.201 263.887L148.517 263.975L148.832 264.045L149.148 264.133L149.464 264.22L149.78 264.308L150.095 264.413L150.411 264.519L150.709 264.624L151.007 264.729L151.323 264.852L151.621 264.957L151.919 265.08L152.218 265.22L152.516 265.343L152.796 265.483L153.095 265.624L153.375 265.764L153.674 265.922L153.954 266.08L154.235 266.237L154.515 266.395L154.779 266.553L155.059 266.729L155.322 266.904L155.585 267.079L155.849 267.255L156.112 267.448L156.375 267.623L156.62 267.816L156.866 268.009L157.111 268.22L157.357 268.412L157.603 268.623L157.831 268.833L158.076 269.044L158.304 269.254L158.532 269.465L158.743 269.693L158.971 269.903L159.181 270.131L159.392 270.359L159.602 270.588L159.795 270.833L160.006 271.061L160.199 271.307L160.392 271.535L160.584 271.78L160.76 272.026L160.935 272.271L161.111 272.517L161.286 272.78L161.461 273.026L161.619 273.289L161.777 273.534L161.935 273.797L162.075 274.061L162.233 274.324L162.374 274.587L162.514 274.85L162.637 275.113L162.777 275.376L162.9 275.639L163.023 275.92L163.128 276.183L163.251 276.446L163.356 276.727L163.461 276.99L163.549 277.27L163.654 277.551L163.742 277.814L163.829 278.095L163.9 278.358L163.987 278.639L164.057 278.919L164.128 279.182L164.198 279.463L164.25 279.744L164.303 280.007L164.356 280.287L164.408 280.568L164.461 280.831L164.496 281.112L164.531 281.392L164.566 281.656L164.584 281.936L164.619 282.199L164.636 282.48L164.654 282.743V283.006L164.671 283.287V283.55V283.813V284.076L164.654 284.339V284.602L164.636 284.865L164.619 285.129L164.584 285.374L164.566 285.637L164.531 285.883L164.496 286.146L164.461 286.391L164.426 286.637L164.391 286.9L164.338 287.146L164.285 287.374L164.233 287.619L164.18 287.865L164.128 288.11L164.057 288.338L163.987 288.566L163.935 288.812L163.865 289.04L163.777 289.268L163.707 289.479L163.636 289.707L163.549 289.935L163.461 290.145L163.373 290.356L163.286 290.584L163.198 290.794L163.093 290.987L163.005 291.198L162.9 291.408L162.812 291.601L162.707 291.794L162.602 292.004L162.496 292.197L162.391 292.373L162.268 292.566L162.163 292.741L162.04 292.934L161.935 293.109L161.812 293.285L161.689 293.46L161.584 293.636L161.461 293.794L161.339 293.969L161.198 294.127L161.076 294.285L160.953 294.443L160.83 294.6L160.707 294.741L160.567 294.899L160.444 295.039L160.304 295.179L160.181 295.32L160.041 295.46L159.9 295.583L159.778 295.723L159.637 295.846L159.497 295.969L159.374 296.091L159.234 296.214L159.094 296.337L158.953 296.442L158.83 296.565L158.69 296.67L158.55 296.775L158.409 296.881L158.269 296.968L158.146 297.074L158.006 297.179L157.866 297.267L157.725 297.354L157.585 297.442L157.462 297.53L157.322 297.617L157.182 297.688L157.059 297.775L156.918 297.845L156.778 297.933L156.655 298.003L156.515 298.073L156.392 298.144L156.252 298.196L156.129 298.266L156.006 298.319L155.866 298.389L155.743 298.442L155.62 298.494L155.498 298.547L155.375 298.6L155.252 298.652L155.129 298.705L155.007 298.74L154.884 298.793L154.761 298.828L154.638 298.88L154.533 298.915L154.41 298.95L154.287 298.986L154.182 299.021L154.077 299.056L153.954 299.091L153.849 299.126L153.744 299.161L153.638 299.178L153.533 299.214L153.428 299.249L153.323 299.266L153.217 299.301L153.112 299.319L153.025 299.336L152.919 299.371L152.832 299.389L152.726 299.407L152.639 299.424L152.551 299.442L152.463 299.459L152.376 299.477L152.288 299.512L152.2 299.529L152.112 299.547H152.025L151.937 299.564L151.867 299.582L151.779 299.599L151.709 299.617L151.621 299.635L151.551 299.652L151.481 299.67L151.411 299.687L151.341 299.705L151.27 299.722L151.2 299.74L151.13 299.757L151.06 299.775L150.99 299.792L150.937 299.81L150.867 299.827L150.797 299.845L150.744 299.863L150.674 299.88L150.621 299.898L150.569 299.915L150.499 299.933L150.446 299.968L150.393 299.985L150.341 300.003L150.288 300.038L150.236 300.056L150.183 300.073L150.13 300.108L150.078 300.126L150.025 300.161L149.972 300.196L149.92 300.213L149.867 300.248L149.832 300.284L149.78 300.319L149.727 300.336L149.674 300.371L149.639 300.406L149.587 300.441L149.534 300.494L149.481 300.529L149.446 300.564L149.394 300.599L149.341 300.652L149.306 300.687L149.253 300.74L149.201 300.775L149.166 300.827L149.113 300.88L149.06 300.915L149.025 300.968L148.973 301.02L148.92 301.073L148.867 301.125L148.815 301.178L148.762 301.231L148.727 301.283L148.674 301.354L148.622 301.406L148.569 301.459L148.499 301.529L148.446 301.582L148.394 301.652L148.341 301.722L148.289 301.774L148.218 301.845L148.166 301.915L148.096 301.985L148.043 302.055L147.973 302.125L147.92 302.195L147.85 302.266L147.78 302.336L147.71 302.406L147.64 302.476L147.569 302.546L147.499 302.634L147.429 302.704L147.359 302.774L147.271 302.862L147.201 302.932L147.113 303.02L147.026 303.09L146.956 303.178L146.868 303.248L146.78 303.336L146.692 303.423L146.587 303.493L146.499 303.581L146.412 303.651L146.307 303.739L146.219 303.827L146.114 303.897L146.008 303.985L145.903 304.072L145.798 304.142L145.693 304.23L145.57 304.318L145.465 304.388L145.342 304.476L145.219 304.563L145.114 304.634L144.991 304.721L144.868 304.791L144.728 304.879L144.605 304.949L144.482 305.037L144.342 305.107L144.202 305.195L144.061 305.265L143.921 305.335L143.781 305.423L143.64 305.493L143.5 305.563L143.342 305.633L143.184 305.704L143.044 305.774L142.886 305.844L142.728 305.914L142.57 305.967L142.395 306.037L142.237 306.107L142.062 306.16L141.904 306.212L141.728 306.282L141.553 306.335L141.378 306.388L141.202 306.44L141.009 306.493L140.834 306.545L140.658 306.581L140.466 306.633L140.273 306.668L140.08 306.721L139.887 306.756L139.694 306.791L139.501 306.826L139.308 306.861L139.097 306.879L138.904 306.914L138.694 306.931L138.483 306.949L138.273 306.984H138.08L137.87 307.002L137.642 307.019H137.431L137.221 307.037H137.01H136.782L136.572 307.019H136.344L136.115 307.002H135.887L135.677 306.984L135.449 306.966L135.221 306.931L134.993 306.914L134.765 306.879L134.537 306.844L134.291 306.809L134.063 306.774L133.835 306.738L133.607 306.686L133.362 306.633L133.134 306.581L132.906 306.528L132.66 306.458L132.432 306.405L132.186 306.335L131.958 306.265L131.713 306.177L131.485 306.107L131.257 306.019L131.011 305.932L130.783 305.844L130.538 305.756L130.31 305.651L130.064 305.546L129.836 305.44L129.608 305.335L129.362 305.212L129.134 305.107L128.906 304.984L128.661 304.862L128.433 304.721L128.205 304.598L127.977 304.458L127.749 304.318L127.521 304.178L127.293 304.02L127.065 303.879L126.854 303.721L126.626 303.564L126.416 303.388L126.188 303.23L125.977 303.055L125.749 302.88L125.539 302.704L125.328 302.511L125.118 302.336L124.907 302.143L124.714 301.95L124.504 301.739L124.311 301.546L124.1 301.336L123.907 301.125L123.714 300.915L123.521 300.705L123.328 300.494L123.153 300.266L122.96 300.038L122.785 299.81L122.609 299.582L122.434 299.336L122.259 299.108L122.083 298.863L121.925 298.617L121.75 298.372L121.592 298.126L121.434 297.863L121.294 297.6L121.136 297.354L120.996 297.091L120.855 296.811L120.715 296.547L120.575 296.284L120.434 296.004L120.312 295.723L120.189 295.442L120.066 295.162L119.961 294.881L119.838 294.6L119.733 294.302L119.627 294.022L119.522 293.723L119.435 293.425L119.347 293.127L119.259 292.829L119.171 292.531L119.084 292.232L119.014 291.934L118.943 291.619L118.873 291.32L118.821 291.005L118.768 290.689L118.715 290.391L118.663 290.075L118.61 289.759L118.575 289.444L118.54 289.128L118.522 288.812L118.487 288.496L118.47 288.181L118.452 287.847V287.532L118.435 287.216V286.9V286.567L118.452 286.251L118.47 285.935L118.487 285.602L118.505 285.286L118.54 284.971L118.557 284.637L118.61 284.322L118.645 284.006L118.698 283.673L118.75 283.357L118.803 283.041L118.856 282.726L118.926 282.392L118.996 282.077L119.084 281.761L119.154 281.445L119.242 281.129L119.329 280.814L119.435 280.515L119.522 280.2L119.627 279.884L119.733 279.586L119.855 279.27L119.978 278.972L120.101 278.656L120.224 278.358L120.347 278.06L120.487 277.762L120.627 277.463L120.785 277.165L120.925 276.885L121.083 276.586L121.241 276.306L121.399 276.025L121.574 275.744L121.732 275.464L121.908 275.183L122.101 274.902L122.276 274.639L122.469 274.359L122.662 274.096L122.855 273.833L123.048 273.569L123.258 273.324L123.469 273.061L123.679 272.815L123.89 272.57L124.1 272.324L124.328 272.078L124.556 271.85L124.784 271.605L125.012 271.377L125.24 271.149L125.486 270.938L125.714 270.71L125.96 270.5L126.205 270.289L126.468 270.079L126.714 269.868L126.977 269.675L127.222 269.482L127.486 269.29L127.749 269.097L128.012 268.921L128.292 268.746L128.556 268.57L128.836 268.395L129.099 268.22L129.38 268.062L129.661 267.904L129.941 267.746L130.222 267.606L130.52 267.465L130.801 267.325L131.081 267.185L131.38 267.044L131.66 266.922L131.958 266.799L132.257 266.694L132.555 266.571L132.853 266.466L133.151 266.36L133.449 266.255L133.748 266.167L134.046 266.08L134.344 265.992L134.642 265.904L134.94 265.834L135.256 265.764L135.554 265.694L135.852 265.641L136.168 265.571L136.466 265.518L136.764 265.483L137.08 265.431L137.378 265.396L137.677 265.36L137.975 265.325L138.291 265.308L138.589 265.273H138.887L139.203 265.255L139.501 265.238H139.799H140.097L140.395 265.255H140.694L140.992 265.273L141.29 265.29L141.588 265.308L141.869 265.343L142.167 265.378L142.465 265.413L142.746 265.448L143.044 265.501L143.325 265.536L143.605 265.588L143.886 265.659L144.167 265.711L144.447 265.781L144.728 265.834L145.009 265.922L145.289 265.992L145.552 266.062L145.815 266.15L146.096 266.237L146.359 266.325L146.622 266.413L146.885 266.518L147.131 266.623L147.394 266.729L147.64 266.834L147.903 266.939L148.148 267.062L148.394 267.167L148.639 267.29L148.867 267.413L149.113 267.535L149.341 267.658L149.587 267.799L149.815 267.939L150.043 268.062L150.253 268.202L150.481 268.342L150.692 268.5L150.902 268.641L151.113 268.781L151.323 268.939L151.534 269.097L151.727 269.254L151.937 269.412L152.13 269.57L152.323 269.728L152.516 269.886L152.691 270.061L152.884 270.219L153.06 270.395L153.235 270.57L153.41 270.745L153.568 270.921L153.744 271.096L153.902 271.272L154.059 271.447L154.217 271.622L154.358 271.798L154.515 271.991L154.656 272.166L154.796 272.342L154.936 272.535L155.077 272.71L155.2 272.903L155.34 273.096L155.463 273.271L155.585 273.464L155.708 273.657L155.813 273.833L155.936 274.025L156.041 274.218L156.147 274.411L156.252 274.604L156.34 274.78L156.445 274.973L156.533 275.166L156.62 275.359L156.708 275.534L156.796 275.727L156.866 275.92L156.954 276.113L157.024 276.288L157.094 276.481L157.164 276.674L157.217 276.849L157.287 277.042L157.339 277.235L157.392 277.411L157.462 277.604L157.497 277.779L157.55 277.955L157.603 278.147L157.638 278.323L157.673 278.498L157.725 278.674L157.76 278.867L157.778 279.042L157.813 279.217L157.848 279.375L157.866 279.551L157.883 279.726L157.918 279.902L157.936 280.059L157.953 280.235V280.393L157.971 280.568L157.988 280.726V280.884V281.042L158.006 281.199V281.357V281.515V281.673L157.988 281.831V281.971V282.129L157.971 282.269V282.41L157.953 282.568V282.708L157.936 282.848L157.918 282.971L157.901 283.111L157.883 283.252L157.866 283.392L157.848 283.515L157.831 283.638L157.813 283.778L157.778 283.901L157.76 284.024L157.743 284.146L157.708 284.269L157.69 284.392L157.673 284.497L157.638 284.62L157.62 284.725L157.585 284.848L157.567 284.953L157.532 285.058L157.497 285.164L157.48 285.269L157.445 285.374L157.41 285.479L157.392 285.567L157.357 285.672L157.322 285.778L157.304 285.865L157.269 285.953L157.234 286.058L157.217 286.146L157.182 286.234L157.164 286.321L157.129 286.409L157.094 286.479L157.076 286.567L157.041 286.655L157.024 286.725L156.989 286.812L156.971 286.883L156.936 286.97L156.918 287.04L156.901 287.111L156.866 287.181L156.848 287.251L156.831 287.321L156.796 287.391L156.778 287.461L156.761 287.532L156.743 287.602L156.726 287.672L156.708 287.742L156.69 287.795L156.673 287.865L156.655 287.917L156.638 287.988V288.058L156.62 288.11L156.603 288.181V288.233L156.585 288.286V288.356L156.568 288.409V288.461V288.531L156.55 288.584V288.637V288.707V288.759" stroke="#6E6E6E" stroke-width="1.57864"/>
<path d="M387.464 554.898H336.82C329.05 554.898 322.752 561.196 322.752 568.966V619.61C322.752 627.379 329.05 633.678 336.82 633.678H387.464C395.233 633.678 401.532 627.379 401.532 619.61V568.966C401.532 561.196 395.233 554.898 387.464 554.898Z" fill="white"/>
<path d="M387.464 554.43H336.82C328.791 554.43 322.283 560.938 322.283 568.967V619.611C322.283 627.639 328.791 634.148 336.82 634.148H387.464C395.492 634.148 402 627.639 402 619.611V568.967C402 560.938 395.492 554.43 387.464 554.43Z" fill="white" stroke="white" stroke-opacity="0.2" stroke-width="0.937853"/>
<path d="M335.887 563.839H388.395C388.635 563.839 388.812 564.001 388.836 564.223L388.837 564.321L384.046 617.961V617.962C384.032 618.123 383.949 618.317 383.803 618.492C383.694 618.623 383.567 618.722 383.445 618.781L383.324 618.827L362.966 624.471C362.75 624.531 362.438 624.567 362.106 624.567C361.856 624.567 361.619 624.547 361.424 624.512L361.245 624.471L340.95 618.836C340.794 618.793 340.617 618.676 340.471 618.501C340.362 618.37 340.288 618.227 340.251 618.096L340.228 617.969L335.446 564.321L335.447 564.223C335.471 564 335.648 563.839 335.887 563.839ZM346.043 574.226C345.246 574.226 344.519 574.832 344.595 575.688L344.769 577.632L346.266 594.404C346.339 595.227 347.06 595.888 347.887 595.888H369.498C369.772 595.888 369.965 596.098 369.941 596.37L369.33 603.173C369.316 603.334 369.234 603.528 369.088 603.701C368.979 603.831 368.852 603.928 368.73 603.986L368.611 604.031L362.985 605.551C362.711 605.625 362.461 605.693 362.28 605.742C362.215 605.76 362.159 605.774 362.114 605.786C362.069 605.774 362.013 605.76 361.949 605.742L361.245 605.552L355.629 604.035C355.473 603.993 355.297 603.878 355.152 603.705C355.043 603.575 354.968 603.433 354.932 603.303L354.909 603.177L354.606 599.781C354.533 598.958 353.81 598.299 352.985 598.299H348.193C347.385 598.299 346.761 598.926 346.748 599.711L346.754 599.87L347.527 608.544V608.545C347.563 608.948 347.75 609.33 347.997 609.627C348.214 609.887 348.502 610.113 348.832 610.238L348.977 610.285V610.286L360.982 613.616C361.256 613.693 361.508 613.762 361.693 613.812C361.785 613.836 361.862 613.857 361.916 613.871C361.943 613.878 361.967 613.884 361.986 613.889C361.994 613.891 362.006 613.893 362.018 613.896C362.023 613.897 362.034 613.899 362.047 613.901C362.053 613.902 362.067 613.904 362.084 613.905C362.093 613.906 362.109 613.907 362.127 613.907C362.137 613.907 362.158 613.903 362.187 613.9L362.188 613.903C362.206 613.901 362.22 613.898 362.223 613.898C362.229 613.897 362.233 613.895 362.236 613.895C362.241 613.894 362.244 613.892 362.246 613.892C362.251 613.891 362.255 613.891 362.258 613.89C362.264 613.888 362.271 613.886 362.279 613.884C362.294 613.88 362.316 613.874 362.342 613.866C362.395 613.852 362.47 613.831 362.562 613.806L363.268 613.611H363.269L375.261 610.285C375.599 610.192 375.917 610.026 376.161 609.826C376.385 609.644 376.639 609.357 376.671 608.995L376.814 607.392L378.236 591.459L378.411 589.517V589.516C378.481 588.721 377.877 588.054 377.077 588.054H354.134C353.864 588.054 353.608 587.852 353.53 587.595L353.508 587.482L353.066 582.54C353.042 582.268 353.235 582.058 353.508 582.058H378.608C378.765 582.058 378.874 581.986 378.928 581.942C378.982 581.897 379.014 581.851 379.029 581.828C379.058 581.783 379.073 581.742 379.078 581.73C379.089 581.698 379.095 581.672 379.097 581.665C379.101 581.646 379.104 581.628 379.105 581.62C379.108 581.601 379.111 581.579 379.114 581.559C379.119 581.515 379.126 581.455 379.133 581.384L379.186 580.835L379.347 579.038L379.473 577.632C379.524 577.067 379.602 576.191 379.647 575.688C379.723 574.832 378.997 574.226 378.199 574.226H346.043ZM362.232 605.818L362.234 605.819C362.232 605.818 362.23 605.817 362.227 605.817C362.229 605.817 362.231 605.817 362.232 605.818Z" fill="black" stroke="black"/>
</g>
</g>
<defs>
<radialGradient id="paint0_radial_1_2" cx="0" cy="0" r="1" gradientUnits="userSpaceOnUse" gradientTransform="translate(332 332.938) rotate(90) scale(349.759)">
<stop/>
<stop offset="1" stop-opacity="0"/>
</radialGradient>
<linearGradient id="paint1_linear_1_2" x1="141.746" y1="-86.5932" x2="363.079" y2="694.638" gradientUnits="userSpaceOnUse">
<stop offset="0.416946"/>
<stop offset="0.880782" stop-opacity="0.02"/>
</linearGradient>
<linearGradient id="paint2_linear_1_2" x1="171.607" y1="427.516" x2="176.755" y2="462.836" gradientUnits="userSpaceOnUse">
<stop offset="0.0001" stop-color="white"/>
</linearGradient>
<clipPath id="clip0_1_2">
<rect width="664" height="665" fill="white"/>
</clipPath>
</defs>
</svg>
